<svg id="Component_18_9" data-name="Component 18 – 9" xmlns="http://www.w3.org/2000/svg" width="204.622" height="64.997" viewBox="0 0 204.622 64.997">
  <path id="N" d="M1328.61,306.015a.485.485,0,0,0-.436-.27h-.122a.491.491,0,0,0-.391.2L1313.1,325.418a3.6,3.6,0,0,0-.645-1.739L1300,306.759a2.162,2.162,0,0,0-3.633-.014l-31.548,42.21a.484.484,0,0,0,0,.581l.061.082a.489.489,0,0,0,.393.2h0a.492.492,0,0,0,.391-.2l31.547-42.208a1.121,1.121,0,0,1,1.944.008l12.463,16.919a2.792,2.792,0,0,1-.013,3.09l-16.025,21.442a.485.485,0,0,0,0,.58l.06.082a.488.488,0,0,0,.784,0l32.149-43.012A.486.486,0,0,0,1328.61,306.015Z" transform="translate(-1124.04 -305.745)" fill="#537885"/>
  <path id="A" d="M1035.339,323.889l-12.462-16.92a2.162,2.162,0,0,0-3.633-.015l-31.548,42.21a.485.485,0,0,0,0,.58l.061.082a.488.488,0,0,0,.784,0l31.547-42.208a1.121,1.121,0,0,1,1.944.008l12.462,16.919a2.791,2.791,0,0,1-.013,3.091L1018.673,348.8l-12.111-16.243a.491.491,0,0,0-.39-.195h-.123a.488.488,0,0,0-.391.779L1018,349.7l-15.064,20.169a.485.485,0,0,0,0,.58l.061.082a.489.489,0,0,0,.393.2h0a.492.492,0,0,0,.391-.2l15.236-20.4a.479.479,0,0,0,.051-.059l.063-.086a.441.441,0,0,0,.032-.051l16.156-21.632A3.881,3.881,0,0,0,1035.339,323.889Z" transform="translate(-881.803 -305.944)" fill="#537885"/>
  <g id="Group_354" data-name="Group 354" transform="translate(-147.112 -305.745)">
    <path id="f" d="M850.848,515.845a.49.49,0,0,0-.391-.2h-.123a.488.488,0,0,0-.391.779l12.627,16.935a.49.49,0,0,0,.391.2h0a.489.489,0,0,0,.393-.2l.061-.082a.485.485,0,0,0,0-.581Z" transform="translate(-614.278 -183.483)" fill="#537885"/>
    <path id="F-2" data-name="F" d="M649.675,326.311a.491.491,0,0,0,.391-.2l.062-.083a.485.485,0,0,0,0-.582l-13.92-18.707a2.162,2.162,0,0,0-3.633-.014l-46.92,62.845a.486.486,0,0,0,0,.581l.062.084a.489.489,0,0,0,.392.2h0a.49.49,0,0,0,.391-.2l46.919-62.844a1.121,1.121,0,0,1,1.946.01l13.921,18.708A.489.489,0,0,0,649.675,326.311Z" transform="translate(-383.256)" fill="#537885"/>
  </g>
  <g id="Group_353" data-name="Group 353" transform="translate(-147.112 -305.745)">
    <path id="f-3" data-name="f" d="M583.4,533.559h0a.489.489,0,0,0,.393-.2l.06-.082a.485.485,0,0,0,0-.581l-12.566-16.852a.49.49,0,0,0-.391-.2h-.123a.488.488,0,0,0-.391.779l12.627,16.935A.49.49,0,0,0,583.4,533.559Z" transform="translate(-369.907 -183.483)" fill="#537885"/>
    <path id="F-4" data-name="F" d="M352.924,309.272a1.236,1.236,0,0,1,.975.569l13.922,18.709a.488.488,0,0,0,.782,0l.061-.082a.491.491,0,0,0,0-.583l-13.92-18.707a2.161,2.161,0,0,0-3.633-.014l-46.92,62.845a.485.485,0,0,0,0,.581l.061.083a.49.49,0,0,0,.393.2h0a.49.49,0,0,0,.391-.2l46.919-62.844A1.237,1.237,0,0,1,352.924,309.272Z" transform="translate(-137.222 -2.129)" fill="#537885"/>
  </g>
  <path id="A-2" data-name="A" d="M194.853,325.3l-12.462-16.92a2.161,2.161,0,0,0-3.633-.014L147.21,350.571a.486.486,0,0,0,0,.581l.062.084a.488.488,0,0,0,.783,0L179.6,309.029a1.121,1.121,0,0,1,1.944.008l12.462,16.919a2.792,2.792,0,0,1-.013,3.091l-15.729,21.06L166.1,333.791a.49.49,0,0,0-.391-.2h-.123a.488.488,0,0,0-.391.779l12.4,16.63-15.14,20.271a.485.485,0,0,0,0,.581l.06.082a.49.49,0,0,0,.393.2h0a.49.49,0,0,0,.391-.2l31.539-42.227A3.882,3.882,0,0,0,194.853,325.3Z" transform="translate(-147.112 -307.173)" fill="#537885"/>
</svg>
