<svg xmlns="http://www.w3.org/2000/svg" xmlns:xlink="http://www.w3.org/1999/xlink" width="401" height="520" viewBox="0 0 401 520"><defs><clipPath id="a"><rect width="400" height="520" fill="#fff" stroke="#707070" stroke-width="1"/></clipPath><filter id="b" x="-5.92" y="559.08" width="419.126" height="19.126" filterUnits="userSpaceOnUse"><feOffset dx="3.643" dy="3.643" input="SourceAlpha"/><feGaussianBlur stdDeviation="3.188" result="c"/><feFlood flood-opacity="0.29"/><feComposite operator="in" in2="c"/><feComposite in="SourceGraphic"/></filter></defs><g transform="translate(1)"><path d="M11.97,0H388.03A11.985,11.985,0,0,1,400,12V508a11.985,11.985,0,0,1-11.97,12H11.97A11.985,11.985,0,0,1,0,508V12A11.985,11.985,0,0,1,11.97,0Z" fill="#f6f8f9" opacity="0"/><g transform="translate(-1)" clip-path="url(#a)"><g transform="matrix(1, 0, 0, 1, 0, 0)" filter="url(#b)"><path d="M400,610h0Z" transform="translate(0 -45)" fill="#fff"/></g><g transform="translate(0 -362)"><rect width="400" height="400" fill="#fff"/><rect width="400" height="400" transform="translate(0 420)" fill="#fff"/><rect width="400" height="400" transform="translate(0 840)" fill="#fff"/></g></g><g transform="translate(135.851 181.857)"><path d="M1593.385,869.256l-31.723-18.362-31.538,18.256-4.75,2.751a93.227,93.227,0,0,0,18.633,14.234l17.788,10.292,17.788-10.292a93.231,93.231,0,0,0,18.553-14.128Z" transform="translate(-1497.636 -740.142)" fill="#11bc85"/><path d="M1589.128,801.341l-49.643-28.733-49.616,28.706-4.619,2.672a92.494,92.494,0,0,0,12.906,19.288l4.724-2.725,36.473-21.113,36.684,21.245,4.7,2.7a93.494,93.494,0,0,0,13.011-19.367Z" transform="translate(-1475.327 -696.7)" fill="#ffb32d"/><path d="M1586.461,728.107l-58.379-33.786-58.352,33.786-4.988,2.884a91.839,91.839,0,0,0,6.229,23.23l4.645-2.7,52.467-30.374,52.52,30.4,4.645,2.672a92.9,92.9,0,0,0,6.2-23.23Z" transform="translate(-1463.924 -653.258)" fill="#f2405f"/><path d="M1527.058,602.065l-64.158,37.12v28.336c0,1.561.026,3.122.132,4.657l5.173-3.016,58.854-34.051,58.88,34.078,5.173,2.99c.105-1.535.132-3.1.132-4.657V639.185Z" transform="translate(-1462.899 -602.065)" fill="#5772ff"/></g><g transform="translate(91.729 142.554)"><line y2="234.891" transform="translate(172.125)" fill="none" stroke="#707070" stroke-width="1" stroke-dasharray="12"/><line y2="215.495" transform="translate(215.495 195.589) rotate(90)" fill="none" stroke="#707070" stroke-width="1" stroke-dasharray="12"/><line y2="234.891" transform="translate(43.461)" fill="none" stroke="#707070" stroke-width="1" stroke-dasharray="12"/><line y2="215.495" transform="translate(215.495 39.303) rotate(90)" fill="none" stroke="#707070" stroke-width="1" stroke-dasharray="12"/></g></g></svg>