<svg xmlns="http://www.w3.org/2000/svg" viewBox="0 0 25.73 55.38"><defs><style>.cls-1{fill:#537885;}</style></defs><g id="Layer_2" data-name="Layer 2"><g id="Layer_1-2" data-name="Layer 1"><path id="A-2" class="cls-1" d="M23.1,0,2.94,0C2,0,1.46-.12.89.3A2.27,2.27,0,0,0,0,2.17l0,52.7a.48.48,0,0,0,.35.46l.1,0a.47.47,0,0,0,.6-.33.22.22,0,0,0,0-.14L1.1,2.2a1.23,1.23,0,0,1,.44-1C1.83,1,2.17,1,2.66,1l20.16,0a2.79,2.79,0,0,1,1.84,2.48V29.13l-19.1.13a.49.49,0,0,0-.44.07L5,29.4a.49.49,0,0,0,.16.86H24.64v14a.48.48,0,0,0,.35.47l.09,0a.5.5,0,0,0,.44-.08h0a.49.49,0,0,0,.19-.39V3.57A3.89,3.89,0,0,0,23.1,0Z"/></g></g></svg>