<?xml version="1.0" encoding="utf-8"?>
<!-- Generator: Adobe Illustrator 25.0.0, SVG Export Plug-In . SVG Version: 6.00 Build 0)  -->
<svg version="1.1" id="Layer_1" xmlns="http://www.w3.org/2000/svg" xmlns:xlink="http://www.w3.org/1999/xlink" x="0px" y="0px"
	 viewBox="0 0 25.7 55.4" style="enable-background:new 0 0 25.7 55.4;" xml:space="preserve">
<style type="text/css">
	.st0{fill:#537885;}
</style>
<path class="st0" d="M25.4,21.5l0,1.1H5.9c-0.1,0-0.2-0.1-0.2-0.2c-0.2-0.2-0.1-0.5,0.1-0.7l0.1-0.1c0.1-0.1,0.3-0.1,0.4-0.1
	L25.4,21.5z"/>
<path class="st0" d="M25.7,3.6v40.7c0,0.2-0.1,0.3-0.2,0.4c-0.1,0.1-0.3,0.1-0.4,0.1H25c-0.2-0.1-0.3-0.2-0.3-0.5v-14l0-1.1V3.5
	c-0.1-1.1-0.8-2.1-1.8-2.5H2.7C2.2,1,1.8,1,1.5,1.2c-0.3,0.2-0.5,0.6-0.4,1l0,52.7c0,0.1,0,0.1,0,0.1c0,0,0,0,0,0
	c-0.1,0.2-0.3,0.4-0.6,0.3H0.3C0.1,55.3,0,55.1,0,54.9V2.2c0-0.7,0.3-1.4,0.9-1.9C1.5-0.1,2,0,2.9,0h20.2C24.6,0.5,25.7,2,25.7,3.6z
	"/>
</svg>
