<svg xmlns="http://www.w3.org/2000/svg" viewBox="0 0 25.6 71.13"><defs><style>.cls-1{fill:#537885;}</style></defs><g id="Layer_2" data-name="Layer 2"><g id="Layer_1-2" data-name="Layer 1"><g id="Group_353" data-name="Group 353"><path id="f-3" class="cls-1" d="M25.18,30.11h0a.47.47,0,0,0,.2-.39v-.1a.48.48,0,0,0-.35-.47l-19.51,0a.49.49,0,0,0-.44.07l-.1.08a.48.48,0,0,0-.09.68.49.49,0,0,0,.25.17H24.75A.45.45,0,0,0,25.18,30.11Z"/><path id="F-4" class="cls-1" d="M1.52,1.19c.29-.22.55-.14,1.12-.13L25,1a.5.5,0,0,0,.61-.33.68.68,0,0,0,0-.14V.47A.51.51,0,0,0,25.25,0L2.92,0C2,0,1.43-.11.87.31A2.24,2.24,0,0,0,0,2.18V70.61a.48.48,0,0,0,.35.46l.1,0A.47.47,0,0,0,.89,71h0a.48.48,0,0,0,.2-.4V2.21A1.24,1.24,0,0,1,1.52,1.19Z"/></g></g></g></svg>