<svg xmlns="http://www.w3.org/2000/svg" viewBox="0 0 28.71 78.95"><defs><style>.cls-1{fill:#537885;}</style></defs><g id="Layer_2" data-name="Layer 2"><g id="Layer_1-2" data-name="Layer 1"><path id="N" class="cls-1" d="M28.43.05a.5.5,0,0,0-.51.05l-.09.07a.47.47,0,0,0-.2.39V24.88a3.61,3.61,0,0,0-1.56-1L3,7.77A2.16,2.16,0,0,0,.17,9a2.12,2.12,0,0,0-.13.9l0,68.5a.48.48,0,0,0,.35.47l.1,0a.51.51,0,0,0,.43-.08h0a.49.49,0,0,0,.19-.39l0-68.5a1.12,1.12,0,0,1,1-1.24,1,1,0,0,1,.58.08L25.78,24.9a2.79,2.79,0,0,1,1.84,2.49V52.15a.48.48,0,0,0,.35.47l.09,0a.49.49,0,0,0,.61-.33.32.32,0,0,0,0-.14l0-51.7A.5.5,0,0,0,28.43.05Z"/></g></g></svg>