<svg xmlns="http://www.w3.org/2000/svg" width="36.009" height="27.257" viewBox="0 0 36.009 27.257"><path d="M31.727,59.882H3.282A3.286,3.286,0,0,0,0,63.164V82.857a3.286,3.286,0,0,0,3.282,3.282H31.727a3.286,3.286,0,0,0,3.282-3.282V63.164A3.286,3.286,0,0,0,31.727,59.882Zm0,2.188a1.088,1.088,0,0,1,.419.085L17.5,74.845,2.863,62.155a1.089,1.089,0,0,1,.419-.085Zm0,21.88H3.282a1.1,1.1,0,0,1-1.094-1.094V64.466l14.6,12.653a1.1,1.1,0,0,0,1.434,0l14.6-12.653v18.39A1.1,1.1,0,0,1,31.727,83.951Z" transform="translate(0.5 -59.382)" fill="#537885" stroke="#fff" stroke-width="1"/></svg>