<svg xmlns="http://www.w3.org/2000/svg" width="28.101" height="38.416" viewBox="0 0 28.101 38.416"><g transform="translate(0.5 0.5)"><g transform="translate(0)"><path d="M84.124,0A13.566,13.566,0,0,0,70.573,13.551c0,9.273,12.127,22.886,12.643,23.461a1.221,1.221,0,0,0,1.816,0c.516-.575,12.643-14.188,12.643-23.461A13.566,13.566,0,0,0,84.124,0Zm0,34.327c-4.081-4.848-11.11-14.412-11.11-20.776a11.11,11.11,0,1,1,22.221,0C95.234,19.915,88.206,29.478,84.124,34.327Z" transform="translate(-70.573)" fill="#537885" stroke="#fff" stroke-width="1"/></g><g transform="translate(6.733 6.733)"><path d="M169.526,92.134a6.818,6.818,0,1,0,6.818,6.818A6.825,6.825,0,0,0,169.526,92.134Zm0,11.2a4.377,4.377,0,1,1,4.377-4.377A4.382,4.382,0,0,1,169.526,103.329Z" transform="translate(-162.708 -92.134)" fill="#537885" stroke="#fff" stroke-width="1"/></g></g></svg>