<svg xmlns="http://www.w3.org/2000/svg" width="31.681" height="31.682" viewBox="0 0 31.681 31.682"><g transform="translate(0.642 0.707)"><g transform="translate(0 0)"><g transform="translate(0 0)"><path d="M29.742,24.118,26.38,21.877,23.39,19.884a1.324,1.324,0,0,0-1.778.289l-1.85,2.378a1.317,1.317,0,0,1-1.682.349,21.536,21.536,0,0,1-6.014-4.634,21.69,21.69,0,0,1-4.634-6.014,1.317,1.317,0,0,1,.349-1.682l2.378-1.85a1.324,1.324,0,0,0,.289-1.778l-1.931-2.9L6.214.59a1.324,1.324,0,0,0-1.783-.4L1.775,1.782A3.245,3.245,0,0,0,.3,3.689c-.726,2.648-.873,8.49,8.49,17.853s15.2,9.215,17.852,8.489a3.245,3.245,0,0,0,1.907-1.474L30.143,25.9A1.324,1.324,0,0,0,29.742,24.118Z" transform="translate(0 0)" fill="none" stroke="#537885" stroke-width="1.24"/><path d="M283,62.838a8.9,8.9,0,0,1,8.89,8.89.523.523,0,0,0,1.046,0A9.947,9.947,0,0,0,283,61.792a.523.523,0,0,0,0,1.046Z" transform="translate(-265.748 -58.131)" fill="#537885" stroke="#537885" stroke-width="0.1"/><path d="M283,115.8a5.759,5.759,0,0,1,5.752,5.752.523.523,0,1,0,1.046,0,6.806,6.806,0,0,0-6.8-6.8.523.523,0,1,0,0,1.046Z" transform="translate(-265.747 -107.958)" fill="#537885" stroke="#537885" stroke-width="0.1"/><path d="M283,168.769a2.618,2.618,0,0,1,2.615,2.615.523.523,0,1,0,1.046,0A3.665,3.665,0,0,0,283,167.723a.523.523,0,0,0,0,1.046Z" transform="translate(-265.748 -157.787)" fill="#537885" stroke="#537885" stroke-width="0.1"/></g></g></g></svg>