<svg xmlns="http://www.w3.org/2000/svg" width="1520.499" height="827" viewBox="0 0 1520.499 827">
  <g id="Logo_1" data-name="Logo 1" transform="translate(168.848)">
    <rect id="Rectangle_99" data-name="Rectangle 99" width="1520" height="826.391" rx="12" transform="translate(-168.349)" fill="#f6f8f9" opacity="0.94"/>
    <g id="Group_71" data-name="Group 71" transform="translate(558.38 33.666)">
      <path id="Path_384" data-name="Path 384" d="M1278.83-1252H883.936v394.895h.04v364.164H1643.04V-1252Z" transform="translate(-883.936 1252.003)" fill="#f2f1f1" opacity="0"/>
      <path id="Path_385" data-name="Path 385" d="M1643.1-1236.382v-.738h-15.232v-14.713h-.738v14.713h-15.09v-14.713h-.737v14.713h-15.09v-14.713h-.738v14.713h-15.09v-14.713h-.737v14.713h-15.09v-14.713h-.738v14.713h-15.09v-14.713h-.737v14.713H1532.9v-14.713h-.738v14.713h-15.09v-14.713h-.737v14.713h-15.09v-14.713h-.738v14.713h-15.09v-14.713h-.737v14.713h-15.09v-14.713h-.738v14.713h-15.09v-14.713h-.737v14.713h-15.09v-14.713h-.738v14.713h-15.09v-14.713h-.737v14.713h-15.09v-14.713h-.738v14.713h-15.089v-14.713h-.738v14.713h-15.09v-14.713h-.738v14.713H1358.8v-14.713h-.738v14.713h-15.09v-14.713h-.738v14.713h-15.089v-14.713h-.738v14.713h-15.09v-14.713h-.738v14.713h-15.089v-14.713h-.738v14.713h-15.09v-14.713h-.737v14.713h-15.09v-14.713h-.739v14.713h-15.09v-14.713h-.737v14.713h-15.09v-14.713h-.738v14.713h-15.09v-14.713h-.737v14.713h-15.09v-14.713h-.738v14.713H1184.7v-14.713h-.737v14.713h-15.09v-14.713h-.738v14.713h-15.09v-14.713h-.737v14.713h-15.09v-14.713h-.738v14.713h-15.09v-14.713h-.737v14.713h-15.09v-14.713h-.738v14.713h-15.09v-14.713H1089v14.713h-15.09v-14.713h-.738v14.713h-15.09v-14.713h-.737v14.713h-15.09v-14.713h-.737v14.713h-15.09v-14.713h-.737v14.713H1010.6v-14.713h-.738v14.713h-15.09v-14.713h-.737v14.713h-15.09v-14.713h-.738v14.713H963.118v-14.713h-.738v14.713H947.29v-14.713h-.738v14.713H931.463v-14.713h-.738v14.713h-15.09v-14.713H914.9v14.713H899.809v-14.713h-.738v14.713h-14.9v.737h14.9v15.09h-14.9v.738h14.9v15.09h-14.9v.737h14.9v15.09h-14.9v.738h14.9v15.09h-14.9v.737h14.9v15.09h-14.9v.738h14.9v15.09h-14.9v.737h14.9v15.09h-14.9v.738h14.9v15.09h-14.9v.737h14.9v15.09h-14.9v.738h14.9v15.09h-14.9v.737h14.9v15.09h-14.9v.738h14.9v15.09h-14.9v.737h14.9v15.09h-14.9v.738h14.9v15.09h-14.9v.737h14.9v15.09h-14.9v.738h14.9v15.09h-14.9v.737h14.9v15.09h-14.9v.738h14.9v15.09h-14.9v.737h14.9v15.09h-14.9v.738h14.9v15.09h-14.9v.737h14.9v15.09h-14.9v.738h14.9v15.09h-14.9v.737h14.9v15.09h-14.9v.737h0v.008h14.9v15.089h-14.9v.738h14.9v15.09h-14.9v.738h14.9V-825.6h-14.9v.738h14.9v15.09h-14.9v.738h14.9v15.089h-14.9v.738h14.9v15.09h-14.9v.738h14.9v15.089h-14.9v.738h14.9v15.09h-14.9v.737h14.9v15.09h-14.9v.738h14.9v15.09h-14.9v.737h14.9v15.09h-14.9v.738h14.9v15.09h-14.9v.737h14.9v15.09h-14.9v.738h14.9v15.09h-14.9v.737h14.9v15.09h-14.9v.738h14.9v15.09h-14.9v.737h14.9v15.09h-14.9v.738h14.9v15.09h-14.9v.737h14.9v15.09h-14.9v.738h14.9v15.09h-14.9v.737h14.9v15.09h-14.9v.738h14.9v15.09h-14.9v.737h14.9v15.09h-14.9v.737h14.9V-492.9h.738V-508.32H914.9V-492.9h.737V-508.32h15.09V-492.9h.738V-508.32h15.09V-492.9h.737V-508.32h15.09V-492.9h.738V-508.32h15.09V-492.9h.737V-508.32h15.09V-492.9h.738V-508.32h15.09V-492.9h.737V-508.32h15.09V-492.9h.738V-508.32h15.09V-492.9h.737V-508.32h15.09V-492.9h.738V-508.32h15.09V-492.9h.737V-508.32H1089V-492.9h.738V-508.32h15.09V-492.9h.737V-508.32h15.09V-492.9h.738V-508.32h15.09V-492.9h.737V-508.32h15.09V-492.9h.738V-508.32h15.09V-492.9h.737V-508.32h15.09V-492.9h.738V-508.32h15.09V-492.9h.737V-508.32h15.09V-492.9h.737V-508.32h15.091V-492.9h.737V-508.32h15.09V-492.9h.738V-508.32H1263.1V-492.9h.738V-508.32h15.09V-492.9h.737V-508.32h15.09V-492.9h.738V-508.32h15.089V-492.9h.738V-508.32h15.09V-492.9h.738V-508.32h15.089V-492.9h.738V-508.32h15.09V-492.9h.738V-508.32h15.089V-492.9h.738V-508.32h15.09V-492.9h.738V-508.32h15.089V-492.9h.738V-508.32h15.09V-492.9h.737V-508.32h15.09V-492.9h.738V-508.32h15.09V-492.9h.737V-508.32h15.09V-492.9h.738V-508.32h15.09V-492.9h.737V-508.32h15.09V-492.9h.738V-508.32h15.09V-492.9h.737V-508.32h15.09V-492.9h.738V-508.32h15.09V-492.9h.737V-508.32h15.09V-492.9h.738V-508.32h15.09V-492.9h.737V-508.32h15.09V-492.9h.738V-508.32h15.09V-492.9h.737V-508.32h15.09V-492.9h.738V-508.32H1643.1v-.737h-15.232v-15.09H1643.1v-.738h-15.232v-15.09H1643.1v-.737h-15.232V-555.8H1643.1v-.737h-15.232v-15.09H1643.1v-.737h-15.232v-15.09H1643.1v-.738h-15.232v-15.09H1643.1v-.737h-15.232v-15.09H1643.1v-.738h-15.232v-15.09H1643.1v-.737h-15.232v-15.09H1643.1v-.738h-15.232v-15.09H1643.1v-.737h-15.232v-15.09H1643.1v-.738h-15.232v-15.09H1643.1v-.737h-15.232v-15.09H1643.1v-.738h-15.232V-729.9H1643.1v-.737h-15.232v-15.09H1643.1v-.738h-15.232v-15.09H1643.1v-.737h-15.232v-15.09H1643.1v-.738h-15.232v-15.09H1643.1v-.737h-15.232v-15.09H1643.1v-.738h-15.232v-15.09H1643.1v-.737h-15.232v-15.09H1643.1v-.737h-15.232v-15.09H1643.1v-.738h-15.232v-15.09H1643.1v-.744h-15.232v-15.09H1643.1v-.737h-15.232v-15.09H1643.1v-.737h-15.232v-15.091H1643.1v-.737h-15.232v-15.09H1643.1v-.738h-15.232V-951.49H1643.1v-.738h-15.232v-15.09H1643.1v-.737h-15.232v-15.09H1643.1v-.738h-15.232v-15.09H1643.1v-.737h-15.232v-15.09H1643.1v-.738h-15.232v-15.09H1643.1v-.737h-15.232v-15.09H1643.1v-.738h-15.232v-15.09H1643.1v-.737h-15.232v-15.09H1643.1v-.738h-15.232v-15.09H1643.1v-.737h-15.232v-15.09H1643.1v-.738h-15.232v-15.09H1643.1v-.737h-15.232v-15.09H1643.1v-.738h-15.232v-15.09H1643.1v-.737h-15.232v-15.09H1643.1v-.738h-15.232v-15.09H1643.1v-.737h-15.232v-15.09H1643.1v-.738h-15.232v-15.09H1643.1v-.737h-15.232v-15.09Zm-31.8,0v15.09h-15.09v-15.09Zm0,363.29h-15.09v-15.09h15.09v15.09Zm-15.828,0h-15.09v-15.09h15.09v15.09Zm-15.827,0h-15.09v-15.09h15.09v15.09Zm-15.828,0h-15.09v-15.09h15.09v15.09Zm-15.827,0H1532.9v-15.09h15.09v15.09Zm-15.828,0h-15.09v-15.09h15.09v15.09Zm-15.827,0h-15.09v-15.09h15.09v15.09Zm-15.828,0h-15.09v-15.09h15.09v15.09Zm-15.827,0h-15.09v-15.09h15.09v15.09Zm-15.828,0h-15.09v-15.09h15.09v15.09Zm-15.827,0h-15.09v-15.09h15.09v15.09Zm-15.828,0h-15.09v-15.09h15.09v15.09Zm-15.827,0h-15.09v-15.09h15.09v15.09Zm-15.828,0h-15.089v-15.09h15.089v15.09Zm-15.827,0h-15.09v-15.09h15.09v15.09Zm-15.828,0H1358.8v-15.09h15.089v15.09Zm-15.827,0h-15.09v-15.09h15.09v15.09Zm-15.828,0h-15.089v-15.09h15.089v15.09Zm-15.827,0h-15.09v-15.09h15.09v15.09Zm-15.828,0h-15.089v-15.09h15.089v15.09Zm-15.827,0h-15.09v-15.09h15.09v15.09Zm-31.655-15.09v15.09H1248.01V-887.8h0v-.384h15.09Zm-30.916,15.835h15.089v15.089h-15.089Zm15.828,0H1263.1v15.089H1248.01Zm15.827,15.089v-15.089h15.09v15.089Zm15.09-15.834h-15.09V-887.8h0v-.383h15.09v15.09Zm0-15.827h-15.09v-15.09h15.09Zm-15.829-15.09v15.09h-15.09v-15.09h15.09Zm-15.827,15.09h-15.09v-15.09h15.09Zm0,.737v15.09h-15.089V-887.8h0v-.384Zm-30.917,15.835h15.089v15.089h-15.089Zm30.918,15.827v15.09h-15.09v-15.09Zm.738,0H1263.1v15.09H1248.01Zm15.827,15.09v-15.09h15.09v15.09Zm15.827-15.09h15.09v15.09h-15.09Zm0-.738v-15.09h15.09v15.09Zm0-31.661v-15.09h15.09v15.09Zm0-15.827v-15.091h15.09v15.091Zm-.737,0h-15.09v-15.09h15.09Zm-15.829-15.09v15.09h-15.09v-15.09h15.09Zm-15.827,15.09h-15.09v-15.09h15.09Zm-15.828,0h-15.09v-15.09h15.09Zm0,.738v15.09h-15.09v-15.09Zm0,15.827v15.09h-15.089V-887.8h0v-.384Zm-30.916,15.835h15.089v15.089h-15.089Zm30.918,15.827v15.09h-15.091v-15.09Zm0,15.828V-825.6h-15.091v-15.089Zm.737,0h15.09V-825.6h-15.09Zm15.828,0H1263.1V-825.6H1248.01Zm15.827,15.089v-15.089h15.09V-825.6Zm15.827-15.09h15.09v15.09h-15.09Zm15.828,0h15.089v15.09h-15.089Zm0-.737v-15.09h15.089v15.09Zm0-15.828v-15.09h15.089v15.09Zm0-31.661v-15.09h15.089v15.09Zm0-15.827v-15.091h15.089v15.091Zm0-15.828v-15.09h15.089v15.09Zm-.738,0h-15.09v-15.09h15.09Zm-15.827,0h-15.09v-15.09h15.09Zm-15.829-15.09v15.09h-15.09v-15.09h15.09Zm-15.827,15.09h-15.09v-15.09h15.09Zm-15.828,0h-15.09v-15.09h15.09Zm-15.827,0h-15.09v-15.09h15.09Zm0,.737v15.09h-15.09v-15.09Zm0,15.828v15.09h-15.09v-15.09Zm0,15.827v15.09h-15.089V-887.8h0v-.384ZM1184.7-872.347h15.088v15.089H1184.7Zm30.917,15.827v15.09h-15.09v-15.09Zm0,15.828V-825.6h-15.09v-15.089Zm0,15.827v15.09h-15.09v-15.09Zm.737,0h15.091v15.09h-15.091Zm15.828,0h15.09v15.09h-15.09Zm15.828,0H1263.1v15.089H1248.01Zm15.827,15.089v-15.089h15.09v15.089Zm15.827-15.09h15.09v15.09h-15.09Zm15.828,0h15.089v15.09h-15.089Zm15.827,0h15.09v15.09h-15.09Zm0-.737v-15.09h15.09v15.09Zm0-15.827v-15.09h15.09v15.09Zm0-15.828v-15.09h15.09v15.09Zm0-31.661v-15.09h15.09v15.09Zm0-15.827v-15.091h15.09v15.091Zm0-15.828v-15.09h15.09v15.09Zm0-15.828V-951.49h15.09V-936.4Zm-.738,0h-15.089V-951.49h15.089Zm-15.827,0h-15.09V-951.49h15.09Zm-15.827,0h-15.09V-951.49h15.09ZM1263.1-951.49V-936.4h-15.09v-15.09h15.09ZM1247.272-936.4h-15.09v-15.09h15.09Zm-15.828,0h-15.09v-15.09h15.09Zm-15.827,0h-15.09v-15.09h15.09Zm-15.828,0H1184.7v-15.09h15.09Zm0,.738v15.09H1184.7v-15.09Zm0,15.827v15.09H1184.7v-15.09Zm0,15.828v15.09H1184.7v-15.09Zm0,15.827v15.09H1184.7V-887.8h0v-.384Zm-30.916,15.835h15.089v15.089h-15.089Zm30.918,15.827v15.09H1184.7v-15.09Zm0,15.828V-825.6H1184.7v-15.089Zm0,15.827v15.09H1184.7v-15.09Zm0,15.828v15.089H1184.7v-15.089Zm.737,0h15.09v15.089h-15.09Zm15.827,0h15.091v15.089h-15.091Zm15.828,0h15.09v15.089h-15.09Zm15.828,0H1263.1v15.089H1248.01Zm15.827,15.089v-15.089h15.09v15.089Zm15.827-15.09h15.09v15.09h-15.09Zm15.828,0h15.089v15.09h-15.089Zm15.827,0h15.09v15.09h-15.09Zm15.828,0h15.089v15.09h-15.089Zm0-.738v-15.09h15.089v15.09Zm0-15.827v-15.09h15.089v15.09Zm0-15.827v-15.09h15.089v15.09Zm0-15.828v-15.09h15.089v15.09Zm0-31.661v-15.09h15.089v15.09Zm0-15.827v-15.091h15.089v15.091Zm0-15.828v-15.09h15.089v15.09Zm0-15.828V-951.49h15.089V-936.4Zm0-15.827v-15.09h15.089v15.09Zm-.738,0h-15.09v-15.09h15.09Zm-15.828,0h-15.089v-15.09h15.089Zm-15.827,0h-15.09v-15.09h15.09Zm-15.827,0h-15.09v-15.09h15.09Zm-15.829-15.09v15.09h-15.09v-15.09h15.09Zm-15.827,15.09h-15.09v-15.09h15.09Zm-15.828,0h-15.09v-15.09h15.09Zm-15.827,0h-15.09v-15.09h15.09Zm-15.828,0H1184.7v-15.09h15.09Zm-15.827,0h-15.09v-15.09h15.09Zm0,.737v15.09h-15.09v-15.09Zm0,15.828v15.09h-15.09v-15.09Zm0,15.827v15.09h-15.09v-15.09Zm0,15.828v15.09h-15.09v-15.09Zm0,15.827v15.09h-15.089V-887.8h0v-.384Zm-30.916,15.835h15.089v15.089h-15.089Zm30.917,15.827v15.09h-15.09v-15.09Zm0,15.828V-825.6h-15.09v-15.089Zm0,15.827v15.09h-15.09v-15.09Zm0,15.828v15.089h-15.09v-15.089Zm0,15.827v15.09h-15.09v-15.09Zm.738,0h15.09v15.09H1184.7Zm15.827,0h15.09v15.09h-15.09Zm15.827,0h15.091v15.09h-15.091Zm15.828,0h15.09v15.09h-15.09Zm15.828,0H1263.1v15.089H1248.01Zm15.827,15.089v-15.089h15.09v15.089Zm15.827-15.09h15.09v15.09h-15.09Zm15.828,0h15.089v15.09h-15.089Zm15.827,0h15.09v15.09h-15.09Zm15.828,0h15.089v15.09h-15.089Zm15.827,0h15.09v15.09h-15.09Zm0-.737v-15.09h15.09v15.09Zm0-15.828v-15.09h15.09v15.09Zm0-15.827v-15.09h15.09v15.09Zm0-15.827v-15.09h15.09v15.09Zm0-15.828v-15.09h15.09v15.09Zm0-31.661v-15.09h15.09v15.09Zm0-15.827v-15.091h15.09v15.091Zm0-15.828v-15.09h15.09v15.09Zm0-15.828V-951.49h15.09V-936.4Zm0-15.827v-15.09h15.09v15.09Zm0-15.827v-15.09h15.09v15.09Zm-.738,0h-15.089v-15.09h15.089Zm-15.827,0h-15.09v-15.09h15.09Zm-15.828,0h-15.089v-15.09h15.089Zm-15.827,0h-15.09v-15.09h15.09Zm-15.827,0h-15.09v-15.089h15.09ZM1263.1-983.145v15.089h-15.09v-15.09h15.09Zm-15.827,15.089h-15.09v-15.09h15.09Zm-15.828,0h-15.09v-15.09h15.09Zm-15.827,0h-15.09v-15.09h15.09Zm-15.828,0H1184.7v-15.09h15.09Zm-15.827,0h-15.09v-15.09h15.09Zm-15.828,0h-15.09v-15.09h15.09Zm0,.738v15.09h-15.09v-15.09Zm0,15.827v15.09h-15.09v-15.09Zm0,15.828v15.09h-15.09v-15.09Zm0,15.827v15.09h-15.09v-15.09Zm0,15.828v15.09h-15.09v-15.09Zm0,15.827v15.09h-15.089V-887.8h0v-.384Zm-30.916,15.835h15.089v15.089h-15.089Zm30.918,15.827v15.09h-15.09v-15.09Zm0,15.828V-825.6h-15.09v-15.089Zm0,15.827v15.09h-15.09v-15.09Zm0,15.828v15.089h-15.09v-15.089Zm0,15.827v15.09h-15.09v-15.09Zm0,15.828v15.089h-15.09v-15.089Zm.737,0h15.09v15.089h-15.09Zm15.828,0h15.09v15.089H1184.7Zm15.827,0h15.09v15.089h-15.09Zm15.827,0h15.091v15.089h-15.091Zm15.828,0h15.09v15.089h-15.09Zm15.828,0H1263.1v15.089H1248.01Zm15.827,15.089v-15.089h15.09v15.089Zm15.827-15.09h15.09v15.09h-15.09Zm15.828,0h15.089v15.09h-15.089Zm15.827,0h15.09v15.09h-15.09Zm15.828,0h15.089v15.09h-15.089Zm15.827,0h15.09v15.09h-15.09Zm15.828,0h15.089v15.09H1358.8Zm0-.738v-15.09h15.089v15.09Zm0-15.827v-15.09h15.089v15.09Zm0-15.828v-15.09h15.089v15.09Zm0-15.827v-15.09h15.089v15.09Zm0-15.827v-15.09h15.089v15.09Zm0-15.828v-15.09h15.089v15.09Zm0-31.661v-15.09h15.089v15.09Zm0-15.827v-15.091h15.089v15.091Zm0-15.828v-15.09h15.089v15.09Zm0-15.828V-951.49h15.089V-936.4Zm0-15.827v-15.09h15.089v15.09Zm0-15.827v-15.09h15.089v15.09Zm0-15.828v-15.09h15.089v15.09Zm-.738,0h-15.09v-15.09h15.09Zm-15.828,0h-15.089v-15.09h15.089Zm-15.827,0h-15.09v-15.09h15.09Zm-15.828,0h-15.089v-15.09h15.089Zm-15.827,0h-15.09v-15.09h15.09Zm-15.827,0h-15.09v-15.09h15.09Zm-15.829-15.09v15.09h-15.09v-15.09h15.09Zm-15.827,15.09h-15.09v-15.09h15.09Zm-15.828,0h-15.09v-15.09h15.09Zm-15.827,0h-15.09v-15.09h15.09Zm-15.828,0H1184.7v-15.09h15.09Zm-15.827,0h-15.09v-15.09h15.09Zm-15.828,0h-15.09v-15.09h15.09Zm-15.827,0h-15.09v-15.09h15.09Zm0,.737v15.09h-15.09v-15.09Zm0,15.828v15.09h-15.09v-15.09Zm0,15.827v15.09h-15.09v-15.09Zm0,15.828v15.09h-15.09v-15.09Zm0,15.827v15.09h-15.09v-15.09Zm0,15.828v15.09h-15.09v-15.09Zm0,15.827v15.09h-15.089V-887.8h0v-.384Zm-30.916,15.835h15.089v15.089h-15.089Zm30.917,15.827v15.09h-15.09v-15.09Zm0,15.828V-825.6h-15.09v-15.089Zm0,15.827v15.09h-15.09v-15.09Zm0,15.828v15.089h-15.09v-15.089Zm0,15.827v15.09h-15.09v-15.09Zm0,15.828v15.089h-15.09v-15.089Zm0,15.827v15.09h-15.09v-15.09Zm.738,0h15.09v15.09h-15.09Zm15.827,0h15.09v15.09h-15.09Zm15.828,0h15.09v15.09H1184.7Zm15.827,0h15.09v15.09h-15.09Zm15.827,0h15.091v15.09h-15.091Zm15.828,0h15.09v15.09h-15.09Zm15.828,0H1263.1v15.089H1248.01Zm15.827,15.089v-15.089h15.09v15.089Zm15.827-15.09h15.09v15.09h-15.09Zm15.828,0h15.089v15.09h-15.089Zm15.827,0h15.09v15.09h-15.09Zm15.828,0h15.089v15.09h-15.089Zm15.827,0h15.09v15.09h-15.09Zm15.828,0h15.089v15.09H1358.8Zm15.827,0h15.09v15.09h-15.09Zm0-.737v-15.09h15.09v15.09Zm0-15.828v-15.09h15.09v15.09Zm0-15.827v-15.09h15.09v15.09Zm0-15.828v-15.09h15.09v15.09Zm0-15.827v-15.09h15.09v15.09Zm0-15.827v-15.09h15.09v15.09Zm0-15.828v-15.09h15.09v15.09Zm0-31.661v-15.09h15.09v15.09Zm0-15.827v-15.091h15.09v15.091Zm0-15.828v-15.09h15.09v15.09Zm0-15.828V-951.49h15.09V-936.4Zm0-15.827v-15.09h15.09v15.09Zm0-15.827v-15.09h15.09v15.09Zm0-15.828v-15.09h15.09v15.09Zm0-15.827v-15.09h15.09v15.09Zm-.738,0H1358.8v-15.09h15.089Zm-15.827,0h-15.09v-15.09h15.09Zm-15.828,0h-15.089v-15.09h15.089Zm-15.827,0h-15.09v-15.09h15.09Zm-15.828,0h-15.089v-15.09h15.089Zm-15.827,0h-15.09v-15.09h15.09Zm-15.827,0h-15.09V-1014.8h15.09ZM1263.1-1014.8v15.089h-15.09v-15.09h15.09Zm-15.827,15.089h-15.09v-15.09h15.09Zm-15.828,0h-15.09v-15.09h15.09Zm-15.827,0h-15.09v-15.09h15.09Zm-15.828,0H1184.7v-15.09h15.09Zm-15.827,0h-15.09v-15.09h15.09Zm-15.828,0h-15.09v-15.09h15.09Zm-15.827,0h-15.09v-15.09h15.09Zm-15.828,0h-15.09v-15.09h15.09Zm0,.738v15.09h-15.09v-15.09Zm0,15.827v15.09h-15.09v-15.09Zm0,15.828v15.09h-15.09v-15.09Zm0,15.827v15.09h-15.09v-15.09Zm0,15.828v15.09h-15.09v-15.09Zm0,15.827v15.09h-15.09v-15.09Zm0,15.828v15.09h-15.09v-15.09Zm0,15.827v15.09h-15.089V-887.8h0v-.384Zm-30.916,15.835h15.089v15.089h-15.089Zm30.918,15.827v15.09h-15.09v-15.09Zm0,15.828V-825.6h-15.09v-15.089Zm0,15.827v15.09h-15.09v-15.09Zm0,15.828v15.089h-15.09v-15.089Zm0,15.827v15.09h-15.09v-15.09Zm0,15.828v15.089h-15.09v-15.089Zm0,15.827v15.09h-15.09v-15.09Zm0,15.827v15.09h-15.09v-15.09Zm.737,0h15.09v15.09h-15.09Zm15.828,0h15.09v15.09h-15.09Zm15.827,0h15.09v15.09h-15.09Zm15.828,0h15.09v15.09H1184.7Zm15.827,0h15.09v15.09h-15.09Zm15.827,0h15.091v15.09h-15.091Zm15.828,0h15.09v15.09h-15.09Zm15.828,0H1263.1v15.09H1248.01Zm15.827,15.09v-15.09h15.09v15.09Zm15.827-15.09h15.09v15.09h-15.09Zm15.828,0h15.089v15.09h-15.089Zm15.827,0h15.09v15.09h-15.09Zm15.828,0h15.089v15.09h-15.089Zm15.827,0h15.09v15.09h-15.09Zm15.828,0h15.089v15.09H1358.8Zm15.827,0h15.09v15.09h-15.09Zm15.828,0h15.089v15.09h-15.089Zm0-.738v-15.09h15.089v15.09Zm0-15.827v-15.09h15.089v15.09Zm0-15.828v-15.09h15.089v15.09Zm0-15.827v-15.09h15.089v15.09Zm0-15.828v-15.09h15.089v15.09Zm0-15.827v-15.09h15.089v15.09Zm0-15.827v-15.09h15.089v15.09Zm0-15.828v-15.09h15.089v15.09Zm0-31.661v-15.09h15.089v15.09Zm0-15.827v-15.091h15.089v15.091Zm0-15.828v-15.09h15.089v15.09Zm0-15.828V-951.49h15.089V-936.4Zm0-15.827v-15.09h15.089v15.09Zm0-15.827v-15.09h15.089v15.09Zm0-15.828v-15.09h15.089v15.09Zm0-15.827v-15.09h15.089v15.09Zm0-15.828v-15.09h15.089v15.09Zm-.738,0h-15.09v-15.09h15.09Zm-15.828,0H1358.8v-15.09h15.089Zm-15.827,0h-15.09v-15.09h15.09Zm-15.828,0h-15.089v-15.09h15.089Zm-15.827,0h-15.09v-15.09h15.09Zm-15.828,0h-15.089v-15.09h15.089Zm-15.827,0h-15.09v-15.09h15.09Zm-15.827,0h-15.09v-15.09h15.09Zm-15.829-15.09v15.09h-15.09v-15.09h15.09Zm-15.827,15.09h-15.09v-15.09h15.09Zm-15.828,0h-15.09v-15.09h15.09Zm-15.827,0h-15.09v-15.09h15.09Zm-15.828,0H1184.7v-15.09h15.09Zm-15.827,0h-15.09v-15.09h15.09Zm-15.828,0h-15.09v-15.09h15.09Zm-15.827,0h-15.09v-15.09h15.09Zm-15.828,0h-15.09v-15.09h15.09Zm-15.827,0h-15.09v-15.09h15.09Zm0,.737v15.09h-15.09v-15.09Zm0,15.828v15.09h-15.09v-15.09Zm0,15.827v15.09h-15.09v-15.09Zm0,15.828v15.09h-15.09v-15.09Zm0,15.827v15.09h-15.09v-15.09Zm0,15.828v15.09h-15.09v-15.09Zm0,15.827v15.09h-15.09v-15.09Zm0,15.828v15.09h-15.09v-15.09Zm0,15.827v15.09h-15.089V-887.8h0v-.384Zm-30.916,15.835h15.089v15.089h-15.089Zm30.917,15.827v15.09h-15.09v-15.09Zm0,15.828V-825.6h-15.09v-15.089Zm0,15.827v15.09h-15.09v-15.09Zm0,15.828v15.089h-15.09v-15.089Zm0,15.827v15.09h-15.09v-15.09Zm0,15.828v15.089h-15.09v-15.089Zm0,15.827v15.09h-15.09v-15.09Zm0,15.827v15.09h-15.09v-15.09Zm0,15.828v15.09h-15.09V-729.9Zm.738,0h15.09v15.09h-15.09Zm15.827,0h15.09v15.09h-15.09Zm15.828,0h15.09v15.09h-15.09Zm15.827,0h15.09v15.09h-15.09Zm15.828,0h15.09v15.09H1184.7Zm15.827,0h15.09v15.09h-15.09Zm15.827,0h15.091v15.09h-15.091Zm15.828,0h15.09v15.09h-15.09Zm15.828,0H1263.1v15.089H1248.01Zm15.827,15.089V-729.9h15.09v15.089Zm15.827-15.09h15.09v15.09h-15.09Zm15.828,0h15.089v15.09h-15.089Zm15.827,0h15.09v15.09h-15.09Zm15.828,0h15.089v15.09h-15.089Zm15.827,0h15.09v15.09h-15.09Zm15.828,0h15.089v15.09H1358.8Zm15.827,0h15.09v15.09h-15.09Zm15.828,0h15.089v15.09h-15.089Zm15.827,0h15.09v15.09h-15.09Zm0-.737v-15.09h15.09v15.09Zm0-15.828v-15.09h15.09v15.09Zm0-15.827v-15.09h15.09v15.09Zm0-15.828v-15.09h15.09v15.09Zm0-15.827v-15.09h15.09v15.09Zm0-15.828v-15.09h15.09v15.09Zm0-15.827v-15.09h15.09v15.09Zm0-15.827v-15.09h15.09v15.09Zm0-15.828v-15.09h15.09v15.09Zm0-31.661v-15.09h15.09v15.09Zm0-15.827v-15.091h15.09v15.091Zm0-15.828v-15.09h15.09v15.09Zm0-15.828V-951.49h15.09V-936.4Zm0-15.827v-15.09h15.09v15.09Zm0-15.827v-15.09h15.09v15.09Zm0-15.828v-15.09h15.09v15.09Zm0-15.827v-15.09h15.09v15.09Zm0-15.828v-15.09h15.09v15.09Zm0-15.827v-15.09h15.09v15.09Zm-.738,0h-15.089v-15.09h15.089Zm-15.827,0h-15.09v-15.09h15.09Zm-15.828,0H1358.8v-15.09h15.089Zm-15.827,0h-15.09v-15.09h15.09Zm-15.828,0h-15.089v-15.09h15.089Zm-15.827,0h-15.09v-15.09h15.09Zm-15.828,0h-15.089v-15.09h15.089Zm-15.827,0h-15.09v-15.09h15.09Zm-15.827,0h-15.09v-15.089h15.09Zm-15.829-15.089v15.089h-15.09v-15.09h15.09Zm-15.827,15.089h-15.09v-15.09h15.09Zm-15.828,0h-15.09v-15.09h15.09Zm-15.827,0h-15.09v-15.09h15.09Zm-15.828,0H1184.7v-15.09h15.09Zm-15.827,0h-15.09v-15.09h15.09Zm-15.828,0h-15.09v-15.09h15.09Zm-15.827,0h-15.09v-15.09h15.09Zm-15.828,0h-15.09v-15.09h15.09Zm-15.827,0h-15.09v-15.09h15.09Zm-15.828,0h-15.09v-15.09h15.09Zm0,.738v15.09h-15.09v-15.09Zm0,15.827v15.09h-15.09v-15.09Zm0,15.828v15.09h-15.09v-15.09Zm0,15.827v15.09h-15.09v-15.09Zm0,15.828v15.09h-15.09v-15.09Zm0,15.827v15.09h-15.09v-15.09Zm0,15.828v15.09h-15.09v-15.09Zm0,15.827v15.09h-15.09v-15.09Zm0,15.828v15.09h-15.09v-15.09Zm0,15.827v15.09h-15.089V-887.8h0v-.384Zm-30.916,15.835H1089v15.089h-15.089Zm30.918,15.827v15.09h-15.09v-15.09Zm0,15.828V-825.6h-15.09v-15.089Zm0,15.827v15.09h-15.09v-15.09Zm0,15.828v15.089h-15.09v-15.089Zm0,15.827v15.09h-15.09v-15.09Zm0,15.828v15.089h-15.09v-15.089Zm0,15.827v15.09h-15.09v-15.09Zm0,15.827v15.09h-15.09v-15.09Zm0,15.828v15.09h-15.09V-729.9Zm0,15.827v15.09h-15.09v-15.09Zm.737,0h15.09v15.09h-15.09Zm15.828,0h15.09v15.09h-15.09Zm15.827,0h15.09v15.09h-15.09Zm15.828,0h15.09v15.09h-15.09Zm15.827,0h15.09v15.09h-15.09Zm15.828,0h15.09v15.09H1184.7Zm15.827,0h15.09v15.09h-15.09Zm15.827,0h15.091v15.09h-15.091Zm15.828,0h15.09v15.09h-15.09Zm15.828,0H1263.1v15.09H1248.01Zm15.827,15.09v-15.09h15.09v15.09Zm15.827-15.09h15.09v15.09h-15.09Zm15.828,0h15.089v15.09h-15.089Zm15.827,0h15.09v15.09h-15.09Zm15.828,0h15.089v15.09h-15.089Zm15.827,0h15.09v15.09h-15.09Zm15.828,0h15.089v15.09H1358.8Zm15.827,0h15.09v15.09h-15.09Zm15.828,0h15.089v15.09h-15.089Zm15.827,0h15.09v15.09h-15.09Zm15.827,0h15.09v15.09h-15.09Zm0-.738V-729.9h15.09v15.09Zm0-15.827v-15.09h15.09v15.09Zm0-15.828v-15.09h15.09v15.09Zm0-15.827v-15.09h15.09v15.09Zm0-15.828v-15.09h15.09v15.09Zm0-15.827v-15.09h15.09v15.09Zm0-15.828v-15.09h15.09v15.09Zm0-15.827v-15.09h15.09v15.09Zm0-15.827v-15.09h15.09v15.09Zm0-15.828v-15.09h15.09v15.09Zm0-31.661v-15.09h15.09v15.09Zm0-15.827v-15.091h15.09v15.091Zm0-15.828v-15.09h15.09v15.09Zm0-15.828V-951.49h15.09V-936.4Zm0-15.827v-15.09h15.09v15.09Zm0-15.827v-15.09h15.09v15.09Zm0-15.828v-15.09h15.09v15.09Zm0-15.827v-15.09h15.09v15.09Zm0-15.828v-15.09h15.09v15.09Zm0-15.827v-15.09h15.09v15.09Zm0-15.828v-15.09h15.09v15.09Zm-.737,0h-15.09v-15.09h15.09Zm-15.828,0h-15.089v-15.09h15.089Zm-15.827,0h-15.09v-15.09h15.09Zm-15.828,0H1358.8v-15.09h15.089Zm-15.827,0h-15.09v-15.09h15.09Zm-15.828,0h-15.089v-15.09h15.089Zm-15.827,0h-15.09v-15.09h15.09Zm-15.828,0h-15.089v-15.09h15.089Zm-15.827,0h-15.09v-15.09h15.09Zm-15.827,0h-15.09v-15.09h15.09Zm-15.829-15.09v15.09h-15.09v-15.09h15.09Zm-15.827,15.09h-15.09v-15.09h15.09Zm-15.828,0h-15.09v-15.09h15.09Zm-15.827,0h-15.09v-15.09h15.09Zm-15.828,0H1184.7v-15.09h15.09Zm-15.827,0h-15.09v-15.09h15.09Zm-15.828,0h-15.09v-15.09h15.09Zm-15.827,0h-15.09v-15.09h15.09Zm-15.828,0h-15.09v-15.09h15.09Zm-15.827,0h-15.09v-15.09h15.09Zm-15.828,0h-15.09v-15.09h15.09Zm-15.827,0h-15.09v-15.09H1089Zm0,.737v15.09h-15.09v-15.09Zm0,15.828v15.09h-15.09v-15.09Zm0,15.827v15.09h-15.09v-15.09Zm0,15.828v15.09h-15.09v-15.09Zm0,15.827v15.09h-15.09v-15.09Zm0,15.828v15.09h-15.09v-15.09Zm0,15.827v15.09h-15.09v-15.09Zm0,15.828v15.09h-15.09v-15.09Zm0,15.827v15.09h-15.09v-15.09Zm0,15.828v15.09h-15.09v-15.09Zm0,15.827v15.09h-15.089V-887.8h0v-.384Zm-30.916,15.835h15.089v15.089h-15.089ZM1089-856.52v15.09h-15.09v-15.09Zm0,15.828V-825.6h-15.09v-15.089Zm0,15.827v15.09h-15.09v-15.09Zm0,15.828v15.089h-15.09v-15.089Zm0,15.827v15.09h-15.09v-15.09Zm0,15.828v15.089h-15.09v-15.089Zm0,15.827v15.09h-15.09v-15.09Zm0,15.827v15.09h-15.09v-15.09Zm0,15.828v15.09h-15.09V-729.9Zm0,15.827v15.09h-15.09v-15.09Zm0,15.828v15.09h-15.09v-15.09Zm.738,0h15.09v15.09h-15.09Zm15.827,0h15.09v15.09h-15.09Zm15.828,0h15.09v15.09h-15.09Zm15.827,0h15.09v15.09h-15.09Zm15.828,0h15.09v15.09h-15.09Zm15.827,0h15.09v15.09h-15.09Zm15.828,0h15.09v15.09H1184.7Zm15.827,0h15.09v15.09h-15.09Zm15.827,0h15.091v15.09h-15.091Zm15.828,0h15.09v15.09h-15.09Zm15.828,0H1263.1v15.089H1248.01Zm15.827,15.089v-15.089h15.09v15.089Zm15.827-15.09h15.09v15.09h-15.09Zm15.828,0h15.089v15.09h-15.089Zm15.827,0h15.09v15.09h-15.09Zm15.828,0h15.089v15.09h-15.089Zm15.827,0h15.09v15.09h-15.09Zm15.828,0h15.089v15.09H1358.8Zm15.827,0h15.09v15.09h-15.09Zm15.828,0h15.089v15.09h-15.089Zm15.827,0h15.09v15.09h-15.09Zm15.827,0h15.09v15.09h-15.09Zm15.828,0h15.09v15.09h-15.09Zm0-.737v-15.09h15.09v15.09Zm0-15.828V-729.9h15.09v15.09Zm0-15.827v-15.09h15.09v15.09Zm0-15.828v-15.09h15.09v15.09Zm0-15.827v-15.09h15.09v15.09Zm0-15.828v-15.09h15.09v15.09Zm0-15.827v-15.09h15.09v15.09Zm0-15.828v-15.09h15.09v15.09Zm0-15.827v-15.09h15.09v15.09Zm0-15.827v-15.09h15.09v15.09Zm0-15.828v-15.09h15.09v15.09Zm0-31.661v-15.09h15.09v15.09Zm0-15.827v-15.091h15.09v15.091Zm0-15.828v-15.09h15.09v15.09Zm0-15.828V-951.49h15.09V-936.4Zm0-15.827v-15.09h15.09v15.09Zm0-15.827v-15.09h15.09v15.09Zm0-15.828v-15.09h15.09v15.09Zm0-15.827v-15.09h15.09v15.09Zm0-15.828v-15.09h15.09v15.09Zm0-15.827v-15.09h15.09v15.09Zm0-15.828v-15.09h15.09v15.09Zm0-15.827v-15.09h15.09v15.09Zm-.738,0h-15.09v-15.09h15.09Zm-15.827,0h-15.09v-15.09h15.09Zm-15.828,0h-15.089v-15.09h15.089Zm-15.827,0h-15.09v-15.09h15.09Zm-15.828,0H1358.8v-15.09h15.089Zm-15.827,0h-15.09v-15.09h15.09Zm-15.828,0h-15.089v-15.09h15.089Zm-15.827,0h-15.09v-15.09h15.09Zm-15.828,0h-15.089v-15.09h15.089Zm-15.827,0h-15.09v-15.09h15.09Zm-15.827,0h-15.09v-15.089h15.09Zm-15.829-15.089v15.089h-15.09v-15.09h15.09Zm-15.827,15.089h-15.09v-15.09h15.09Zm-15.828,0h-15.09v-15.09h15.09Zm-15.827,0h-15.09v-15.09h15.09Zm-15.828,0H1184.7v-15.09h15.09Zm-15.827,0h-15.09v-15.09h15.09Zm-15.828,0h-15.09v-15.09h15.09Zm-15.827,0h-15.09v-15.09h15.09Zm-15.828,0h-15.09v-15.09h15.09Zm-15.827,0h-15.09v-15.09h15.09Zm-15.828,0h-15.09v-15.09h15.09Zm-15.827,0h-15.09v-15.09H1089Zm-15.828,0h-15.09v-15.09h15.09Zm0,.738v15.09h-15.09v-15.09Zm0,15.827v15.09h-15.09v-15.09Zm0,15.828v15.09h-15.09v-15.09Zm0,15.827v15.09h-15.09v-15.09Zm0,15.828v15.09h-15.09v-15.09Zm0,15.827v15.09h-15.09v-15.09Zm0,15.828v15.09h-15.09v-15.09Zm0,15.827v15.09h-15.09v-15.09Zm0,15.828v15.09h-15.09v-15.09Zm0,15.827v15.09h-15.09v-15.09Zm0,15.828v15.09h-15.09v-15.09Zm0,15.827v15.09h-15.089V-887.8h0v-.384Zm-30.916,15.835h15.089v15.089h-15.089Zm30.918,15.827v15.09h-15.09v-15.09Zm0,15.828V-825.6h-15.09v-15.089Zm0,15.827v15.09h-15.09v-15.09Zm0,15.828v15.089h-15.09v-15.089Zm0,15.827v15.09h-15.09v-15.09Zm0,15.828v15.089h-15.09v-15.089Zm0,15.827v15.09h-15.09v-15.09Zm0,15.827v15.09h-15.09v-15.09Zm0,15.828v15.09h-15.09V-729.9Zm0,15.827v15.09h-15.09v-15.09Zm0,15.828v15.09h-15.09v-15.09Zm0,15.827v15.09h-15.09v-15.09Zm.737,0H1089v15.09h-15.09Zm15.828,0h15.09v15.09h-15.09Zm15.827,0h15.09v15.09h-15.09Zm15.828,0h15.09v15.09h-15.09Zm15.827,0h15.09v15.09h-15.09Zm15.828,0h15.09v15.09h-15.09Zm15.827,0h15.09v15.09h-15.09Zm15.828,0h15.09v15.09H1184.7Zm15.827,0h15.09v15.09h-15.09Zm15.827,0h15.091v15.09h-15.091Zm15.828,0h15.09v15.09h-15.09Zm15.828,0H1263.1v15.09H1248.01Zm15.827,15.09v-15.09h15.09v15.09Zm15.827-15.09h15.09v15.09h-15.09Zm15.828,0h15.089v15.09h-15.089Zm15.827,0h15.09v15.09h-15.09Zm15.828,0h15.089v15.09h-15.089Zm15.827,0h15.09v15.09h-15.09Zm15.828,0h15.089v15.09H1358.8Zm15.827,0h15.09v15.09h-15.09Zm15.828,0h15.089v15.09h-15.089Zm15.827,0h15.09v15.09h-15.09Zm15.827,0h15.09v15.09h-15.09Zm15.828,0h15.09v15.09h-15.09Zm15.827,0h15.09v15.09h-15.09Zm0-.738v-15.09h15.09v15.09Zm0-15.827v-15.09h15.09v15.09Zm0-15.828V-729.9h15.09v15.09Zm0-15.827v-15.09h15.09v15.09Zm0-15.828v-15.09h15.09v15.09Zm0-15.827v-15.09h15.09v15.09Zm0-15.828v-15.09h15.09v15.09Zm0-15.827v-15.09h15.09v15.09Zm0-15.828v-15.09h15.09v15.09Zm0-15.827v-15.09h15.09v15.09Zm0-15.827v-15.09h15.09v15.09Zm0-15.828v-15.09h15.09v15.09Zm0-31.661v-15.09h15.09v15.09Zm0-15.827v-15.091h15.09v15.091Zm0-15.828v-15.09h15.09v15.09Zm0-15.828V-951.49h15.09V-936.4Zm0-15.827v-15.09h15.09v15.09Zm0-15.827v-15.09h15.09v15.09Zm0-15.828v-15.09h15.09v15.09Zm0-15.827v-15.09h15.09v15.09Zm0-15.828v-15.09h15.09v15.09Zm0-15.827v-15.09h15.09v15.09Zm0-15.828v-15.09h15.09v15.09Zm0-15.827v-15.09h15.09v15.09Zm0-15.828v-15.09h15.09v15.09Zm-.737,0h-15.09v-15.09h15.09Zm-15.828,0h-15.09v-15.09h15.09Zm-15.827,0h-15.09v-15.09h15.09Zm-15.828,0h-15.089v-15.09h15.089Zm-15.827,0h-15.09v-15.09h15.09Zm-15.828,0H1358.8v-15.09h15.089Zm-15.827,0h-15.09v-15.09h15.09Zm-15.828,0h-15.089v-15.09h15.089Zm-15.827,0h-15.09v-15.09h15.09Zm-15.828,0h-15.089v-15.09h15.089Zm-15.827,0h-15.09v-15.09h15.09Zm-15.827,0h-15.09v-15.09h15.09Zm-15.829-15.09v15.09h-15.09v-15.09h15.09Zm-15.827,15.09h-15.09v-15.09h15.09Zm-15.828,0h-15.09v-15.09h15.09Zm-15.827,0h-15.09v-15.09h15.09Zm-15.828,0H1184.7v-15.09h15.09Zm-15.827,0h-15.09v-15.09h15.09Zm-15.828,0h-15.09v-15.09h15.09Zm-15.827,0h-15.09v-15.09h15.09Zm-15.828,0h-15.09v-15.09h15.09Zm-15.827,0h-15.09v-15.09h15.09Zm-15.828,0h-15.09v-15.09h15.09Zm-15.827,0h-15.09v-15.09H1089Zm-15.828,0h-15.09v-15.09h15.09Zm-15.827,0h-15.09v-15.09h15.09Zm0,.737v15.09h-15.09v-15.09Zm0,15.828v15.09h-15.09v-15.09Zm0,15.827v15.09h-15.09v-15.09Zm0,15.828v15.09h-15.09v-15.09Zm0,15.827v15.09h-15.09v-15.09Zm0,15.828v15.09h-15.09v-15.09Zm0,15.827v15.09h-15.09v-15.09Zm0,15.828v15.09h-15.09v-15.09Zm0,15.827v15.09h-15.09v-15.09Zm0,15.828v15.09h-15.09v-15.09Zm0,15.827v15.09h-15.09v-15.09Zm0,15.828v15.09h-15.09v-15.09Zm0,15.827v15.09h-15.089V-887.8h0v-.384Zm-30.916,15.835h15.089v15.089h-15.089Zm30.917,15.827v15.09h-15.09v-15.09Zm0,15.828V-825.6h-15.09v-15.089Zm0,15.827v15.09h-15.09v-15.09Zm0,15.828v15.089h-15.09v-15.089Zm0,15.827v15.09h-15.09v-15.09Zm0,15.828v15.089h-15.09v-15.089Zm0,15.827v15.09h-15.09v-15.09Zm0,15.827v15.09h-15.09v-15.09Zm0,15.828v15.09h-15.09V-729.9Zm0,15.827v15.09h-15.09v-15.09Zm0,15.828v15.09h-15.09v-15.09Zm0,15.827v15.09h-15.09v-15.09Zm0,15.828v15.09h-15.09v-15.09Zm.738,0h15.09v15.09h-15.09Zm15.827,0H1089v15.09h-15.09Zm15.828,0h15.09v15.09h-15.09Zm15.827,0h15.09v15.09h-15.09Zm15.828,0h15.09v15.09h-15.09Zm15.827,0h15.09v15.09h-15.09Zm15.828,0h15.09v15.09h-15.09Zm15.827,0h15.09v15.09h-15.09Zm15.828,0h15.09v15.09H1184.7Zm15.827,0h15.09v15.09h-15.09Zm15.827,0h15.091v15.09h-15.091Zm15.828,0h15.09v15.09h-15.09Zm15.828,0H1263.1V-651.5H1248.01Zm15.827,15.089v-15.089h15.09V-651.5Zm15.827-15.09h15.09v15.09h-15.09Zm15.828,0h15.089v15.09h-15.089Zm15.827,0h15.09v15.09h-15.09Zm15.828,0h15.089v15.09h-15.089Zm15.827,0h15.09v15.09h-15.09Zm15.828,0h15.089v15.09H1358.8Zm15.827,0h15.09v15.09h-15.09Zm15.828,0h15.089v15.09h-15.089Zm15.827,0h15.09v15.09h-15.09Zm15.827,0h15.09v15.09h-15.09Zm15.828,0h15.09v15.09h-15.09Zm15.827,0h15.09v15.09h-15.09Zm15.828,0h15.09v15.09h-15.09Zm0-.737v-15.09h15.09v15.09Zm0-15.828v-15.09h15.09v15.09Zm0-15.827v-15.09h15.09v15.09Zm0-15.828V-729.9h15.09v15.09Zm0-15.827v-15.09h15.09v15.09Zm0-15.828v-15.09h15.09v15.09Zm0-15.827v-15.09h15.09v15.09Zm0-15.828v-15.09h15.09v15.09Zm0-15.827v-15.09h15.09v15.09Zm0-15.828v-15.09h15.09v15.09Zm0-15.827v-15.09h15.09v15.09Zm0-15.827v-15.09h15.09v15.09Zm0-15.828v-15.09h15.09v15.09Zm0-31.661v-15.09h15.09v15.09Zm0-15.827v-15.091h15.09v15.091Zm0-15.828v-15.09h15.09v15.09Zm0-15.828V-951.49h15.09V-936.4Zm0-15.827v-15.09h15.09v15.09Zm0-15.827v-15.09h15.09v15.09Zm0-15.828v-15.09h15.09v15.09Zm0-15.827v-15.09h15.09v15.09Zm0-15.828v-15.09h15.09v15.09Zm0-15.827v-15.09h15.09v15.09Zm0-15.828v-15.09h15.09v15.09Zm0-15.827v-15.09h15.09v15.09Zm0-15.828v-15.09h15.09v15.09Zm0-15.827v-15.09h15.09v15.09Zm-.738,0h-15.09v-15.09h15.09Zm-15.827,0h-15.09v-15.09h15.09Zm-15.828,0h-15.09v-15.09h15.09Zm-15.827,0h-15.09v-15.09h15.09Zm-15.828,0h-15.089v-15.09h15.089Zm-15.827,0h-15.09v-15.09h15.09Zm-15.828,0H1358.8v-15.09h15.089Zm-15.827,0h-15.09v-15.09h15.09Zm-15.828,0h-15.089v-15.09h15.089Zm-15.827,0h-15.09v-15.09h15.09Zm-15.828,0h-15.089v-15.09h15.089Zm-15.827,0h-15.09v-15.09h15.09Zm-15.827,0h-15.09v-15.089h15.09Zm-15.829-15.089v15.089h-15.09v-15.09h15.09Zm-15.827,15.089h-15.09v-15.09h15.09Zm-15.828,0h-15.09v-15.09h15.09Zm-15.827,0h-15.09v-15.09h15.09Zm-15.828,0H1184.7v-15.09h15.09Zm-15.827,0h-15.09v-15.09h15.09Zm-15.828,0h-15.09v-15.09h15.09Zm-15.827,0h-15.09v-15.09h15.09Zm-15.828,0h-15.09v-15.09h15.09Zm-15.827,0h-15.09v-15.09h15.09Zm-15.828,0h-15.09v-15.09h15.09Zm-15.827,0h-15.09v-15.09H1089Zm-15.828,0h-15.09v-15.09h15.09Zm-15.827,0h-15.09v-15.09h15.09Zm-15.828,0h-15.09v-15.09h15.09Zm0,.738v15.09h-15.09v-15.09Zm0,15.827v15.09h-15.09v-15.09Zm0,15.828v15.09h-15.09v-15.09Zm0,15.827v15.09h-15.09v-15.09Zm0,15.828v15.09h-15.09v-15.09Zm0,15.827v15.09h-15.09v-15.09Zm0,15.828v15.09h-15.09v-15.09Zm0,15.827v15.09h-15.09v-15.09Zm0,15.828v15.09h-15.09v-15.09Zm0,15.827v15.09h-15.09v-15.09Zm0,15.828v15.09h-15.09v-15.09Zm0,15.827v15.09h-15.09v-15.09Zm0,15.828v15.09h-15.09v-15.09Zm0,15.827v15.09h-15.089V-887.8h0v-.384ZM1010.6-872.347h15.089v15.089H1010.6Zm30.918,15.827v15.09h-15.09v-15.09Zm0,15.828V-825.6h-15.09v-15.089Zm0,15.827v15.09h-15.09v-15.09Zm0,15.828v15.089h-15.09v-15.089Zm0,15.827v15.09h-15.09v-15.09Zm0,15.828v15.089h-15.09v-15.089Zm0,15.827v15.09h-15.09v-15.09Zm0,15.827v15.09h-15.09v-15.09Zm0,15.828v15.09h-15.09V-729.9Zm0,15.827v15.09h-15.09v-15.09Zm0,15.828v15.09h-15.09v-15.09Zm0,15.827v15.09h-15.09v-15.09Zm0,15.828v15.09h-15.09v-15.09Zm0,15.827v15.09h-15.09v-15.09Zm.737,0h15.09v15.09h-15.09Zm15.828,0h15.09v15.09h-15.09Zm15.827,0H1089v15.09h-15.09Zm15.828,0h15.09v15.09h-15.09Zm15.827,0h15.09v15.09h-15.09Zm15.828,0h15.09v15.09h-15.09Zm15.827,0h15.09v15.09h-15.09Zm15.828,0h15.09v15.09h-15.09Zm15.827,0h15.09v15.09h-15.09Zm15.828,0h15.09v15.09H1184.7Zm15.827,0h15.09v15.09h-15.09Zm15.827,0h15.091v15.09h-15.091Zm15.828,0h15.09v15.09h-15.09Zm15.828,0H1263.1v15.09H1248.01Zm15.827,15.09v-15.09h15.09v15.09Zm15.827-15.09h15.09v15.09h-15.09Zm15.828,0h15.089v15.09h-15.089Zm15.827,0h15.09v15.09h-15.09Zm15.828,0h15.089v15.09h-15.089Zm15.827,0h15.09v15.09h-15.09Zm15.828,0h15.089v15.09H1358.8Zm15.827,0h15.09v15.09h-15.09Zm15.828,0h15.089v15.09h-15.089Zm15.827,0h15.09v15.09h-15.09Zm15.827,0h15.09v15.09h-15.09Zm15.828,0h15.09v15.09h-15.09Zm15.827,0h15.09v15.09h-15.09Zm15.828,0h15.09v15.09h-15.09Zm15.827,0h15.09v15.09h-15.09Zm0-.738v-15.09h15.09v15.09Zm0-15.827v-15.09h15.09v15.09Zm0-15.828v-15.09h15.09v15.09Zm0-15.827v-15.09h15.09v15.09Zm0-15.828V-729.9h15.09v15.09Zm0-15.827v-15.09h15.09v15.09Zm0-15.828v-15.09h15.09v15.09Zm0-15.827v-15.09h15.09v15.09Zm0-15.828v-15.09h15.09v15.09Zm0-15.827v-15.09h15.09v15.09Zm0-15.828v-15.09h15.09v15.09Zm0-15.827v-15.09h15.09v15.09Zm0-15.827v-15.09h15.09v15.09Zm0-15.828v-15.09h15.09v15.09Zm0-31.661v-15.09h15.09v15.09Zm0-15.827v-15.091h15.09v15.091Zm0-15.828v-15.09h15.09v15.09Zm0-15.828V-951.49h15.09V-936.4Zm0-15.827v-15.09h15.09v15.09Zm0-15.827v-15.09h15.09v15.09Zm0-15.828v-15.09h15.09v15.09Zm0-15.827v-15.09h15.09v15.09Zm0-15.828v-15.09h15.09v15.09Zm0-15.827v-15.09h15.09v15.09Zm0-15.828v-15.09h15.09v15.09Zm0-15.827v-15.09h15.09v15.09Zm0-15.828v-15.09h15.09v15.09Zm0-15.827v-15.09h15.09v15.09Zm0-15.828v-15.09h15.09v15.09Zm-.737,0h-15.09v-15.09h15.09Zm-15.828,0h-15.09v-15.09h15.09Zm-15.827,0h-15.09v-15.09h15.09Zm-15.828,0h-15.09v-15.09h15.09Zm-15.827,0h-15.09v-15.09h15.09Zm-15.828,0h-15.089v-15.09h15.089Zm-15.827,0h-15.09v-15.09h15.09Zm-15.828,0H1358.8v-15.09h15.089Zm-15.827,0h-15.09v-15.09h15.09Zm-15.828,0h-15.089v-15.09h15.089Zm-15.827,0h-15.09v-15.09h15.09Zm-15.828,0h-15.089v-15.09h15.089Zm-15.827,0h-15.09v-15.09h15.09Zm-15.827,0h-15.09v-15.09h15.09Zm-15.829-15.09v15.09h-15.09v-15.09h15.09Zm-15.827,15.09h-15.09v-15.09h15.09Zm-15.828,0h-15.09v-15.09h15.09Zm-15.827,0h-15.09v-15.09h15.09Zm-15.828,0H1184.7v-15.09h15.09Zm-15.827,0h-15.09v-15.09h15.09Zm-15.828,0h-15.09v-15.09h15.09Zm-15.827,0h-15.09v-15.09h15.09Zm-15.828,0h-15.09v-15.09h15.09Zm-15.827,0h-15.09v-15.09h15.09Zm-15.828,0h-15.09v-15.09h15.09Zm-15.827,0h-15.09v-15.09H1089Zm-15.828,0h-15.09v-15.09h15.09Zm-15.827,0h-15.09v-15.09h15.09Zm-15.828,0h-15.09v-15.09h15.09Zm-15.827,0H1010.6v-15.09h15.09Zm0,.737v15.09H1010.6v-15.09Zm0,15.828v15.09H1010.6v-15.09Zm0,15.827v15.09H1010.6v-15.09Zm0,15.828v15.09H1010.6v-15.09Zm0,15.827v15.09H1010.6v-15.09Zm0,15.828v15.09H1010.6v-15.09Zm0,15.827v15.09H1010.6v-15.09Zm0,15.828v15.09H1010.6v-15.09Zm0,15.827v15.09H1010.6v-15.09Zm0,15.828v15.09H1010.6v-15.09Zm0,15.827v15.09H1010.6v-15.09Zm0,15.828v15.09H1010.6v-15.09Zm0,15.827v15.09H1010.6v-15.09Zm0,15.828v15.09H1010.6v-15.09Zm0,15.827v15.09H1010.6V-887.8h0v-.384Zm-30.916,15.835h15.089v15.089H994.773Zm30.917,15.827v15.09H1010.6v-15.09Zm0,15.828V-825.6H1010.6v-15.089Zm0,15.827v15.09H1010.6v-15.09Zm0,15.828v15.089H1010.6v-15.089Zm0,15.827v15.09H1010.6v-15.09Zm0,15.828v15.089H1010.6v-15.089Zm0,15.827v15.09H1010.6v-15.09Zm0,15.827v15.09H1010.6v-15.09Zm0,15.828v15.09H1010.6V-729.9Zm0,15.827v15.09H1010.6v-15.09Zm0,15.828v15.09H1010.6v-15.09Zm0,15.827v15.09H1010.6v-15.09Zm0,15.828v15.09H1010.6v-15.09Zm0,15.827v15.09H1010.6v-15.09Zm0,15.828v15.09H1010.6v-15.09Zm.738,0h15.09v15.09h-15.09Zm15.827,0h15.09v15.09h-15.09Zm15.828,0h15.09v15.09h-15.09Zm15.827,0H1089v15.09h-15.09Zm15.828,0h15.09v15.09h-15.09Zm15.827,0h15.09v15.09h-15.09Zm15.828,0h15.09v15.09h-15.09Zm15.827,0h15.09v15.09h-15.09Zm15.828,0h15.09v15.09h-15.09Zm15.827,0h15.09v15.09h-15.09Zm15.828,0h15.09v15.09H1184.7Zm15.827,0h15.09v15.09h-15.09Zm15.827,0h15.091v15.09h-15.091Zm15.828,0h15.09v15.09h-15.09Zm15.828,0H1263.1v15.089H1248.01Zm15.827,15.089v-15.089h15.09v15.089Zm15.827-15.09h15.09v15.09h-15.09Zm15.828,0h15.089v15.09h-15.089Zm15.827,0h15.09v15.09h-15.09Zm15.828,0h15.089v15.09h-15.089Zm15.827,0h15.09v15.09h-15.09Zm15.828,0h15.089v15.09H1358.8Zm15.827,0h15.09v15.09h-15.09Zm15.828,0h15.089v15.09h-15.089Zm15.827,0h15.09v15.09h-15.09Zm15.827,0h15.09v15.09h-15.09Zm15.828,0h15.09v15.09h-15.09Zm15.827,0h15.09v15.09h-15.09Zm15.828,0h15.09v15.09h-15.09Zm15.827,0h15.09v15.09h-15.09Zm15.828,0h15.09v15.09h-15.09Zm0-.737v-15.09h15.09v15.09Zm0-15.828v-15.09h15.09v15.09Zm0-15.827v-15.09h15.09v15.09Zm0-15.828v-15.09h15.09v15.09Zm0-15.827v-15.09h15.09v15.09Zm0-15.828V-729.9h15.09v15.09Zm0-15.827v-15.09h15.09v15.09Zm0-15.828v-15.09h15.09v15.09Zm0-15.827v-15.09h15.09v15.09Zm0-15.828v-15.09h15.09v15.09Zm0-15.827v-15.09h15.09v15.09Zm0-15.828v-15.09h15.09v15.09Zm0-15.827v-15.09h15.09v15.09Zm0-15.827v-15.09h15.09v15.09Zm0-15.828v-15.09h15.09v15.09Zm0-31.661v-15.09h15.09v15.09Zm0-15.827v-15.091h15.09v15.091Zm0-15.828v-15.09h15.09v15.09Zm0-15.828V-951.49h15.09V-936.4Zm0-15.827v-15.09h15.09v15.09Zm0-15.827v-15.09h15.09v15.09Zm0-15.828v-15.09h15.09v15.09Zm0-15.827v-15.09h15.09v15.09Zm0-15.828v-15.09h15.09v15.09Zm0-15.827v-15.09h15.09v15.09Zm0-15.828v-15.09h15.09v15.09Zm0-15.827v-15.09h15.09v15.09Zm0-15.828v-15.09h15.09v15.09Zm0-15.827v-15.09h15.09v15.09Zm0-15.828v-15.09h15.09v15.09Zm0-15.827v-15.09h15.09v15.09Zm-.738,0h-15.09v-15.09h15.09Zm-15.827,0h-15.09v-15.09h15.09Zm-15.828,0h-15.09v-15.09h15.09Zm-15.827,0h-15.09v-15.09h15.09Zm-15.828,0h-15.09v-15.09h15.09Zm-15.827,0h-15.09v-15.09h15.09Zm-15.828,0h-15.089v-15.09h15.089Zm-15.827,0h-15.09v-15.09h15.09Zm-15.828,0H1358.8v-15.09h15.089Zm-15.827,0h-15.09v-15.09h15.09Zm-15.828,0h-15.089v-15.09h15.089Zm-15.827,0h-15.09v-15.09h15.09Zm-15.828,0h-15.089v-15.09h15.089Zm-15.827,0h-15.09v-15.09h15.09Zm-15.827,0h-15.09v-15.089h15.09Zm-15.829-15.089v15.089h-15.09v-15.09h15.09Zm-15.827,15.089h-15.09v-15.09h15.09Zm-15.828,0h-15.09v-15.09h15.09Zm-15.827,0h-15.09v-15.09h15.09Zm-15.828,0H1184.7v-15.09h15.09Zm-15.827,0h-15.09v-15.09h15.09Zm-15.828,0h-15.09v-15.09h15.09Zm-15.827,0h-15.09v-15.09h15.09Zm-15.828,0h-15.09v-15.09h15.09Zm-15.827,0h-15.09v-15.09h15.09Zm-15.828,0h-15.09v-15.09h15.09Zm-15.827,0h-15.09v-15.09H1089Zm-15.828,0h-15.09v-15.09h15.09Zm-15.827,0h-15.09v-15.09h15.09Zm-15.828,0h-15.09v-15.09h15.09Zm-15.827,0H1010.6v-15.09h15.09Zm-15.828,0h-15.09v-15.09h15.09Zm0,.738v15.09h-15.09v-15.09Zm0,15.827v15.09h-15.09v-15.09Zm0,15.828v15.09h-15.09v-15.09Zm0,15.827v15.09h-15.09v-15.09Zm0,15.828v15.09h-15.09v-15.09Zm0,15.827v15.09h-15.09v-15.09Zm0,15.828v15.09h-15.09v-15.09Zm0,15.827v15.09h-15.09v-15.09Zm0,15.828v15.09h-15.09v-15.09Zm0,15.827v15.09h-15.09v-15.09Zm0,15.828v15.09h-15.09v-15.09Zm0,15.827v15.09h-15.09v-15.09Zm0,15.828v15.09h-15.09v-15.09Zm0,15.827v15.09h-15.09v-15.09Zm0,15.828v15.09h-15.09v-15.09Zm0,15.827v15.09H994.773V-887.8h0v-.384Zm-30.916,15.835h15.089v15.089H978.946Zm30.918,15.827v15.09h-15.09v-15.09Zm0,15.828V-825.6h-15.09v-15.089Zm0,15.827v15.09h-15.09v-15.09Zm0,15.828v15.089h-15.09v-15.089Zm0,15.827v15.09h-15.09v-15.09Zm0,15.828v15.089h-15.09v-15.089Zm0,15.827v15.09h-15.09v-15.09Zm0,15.827v15.09h-15.09v-15.09Zm0,15.828v15.09h-15.09V-729.9Zm0,15.827v15.09h-15.09v-15.09Zm0,15.828v15.09h-15.09v-15.09Zm0,15.827v15.09h-15.09v-15.09Zm0,15.828v15.09h-15.09v-15.09Zm0,15.827v15.09h-15.09v-15.09Zm0,15.828v15.09h-15.09v-15.09Zm0,15.827v15.09h-15.09v-15.09Zm.737,0h15.09v15.09H1010.6Zm15.828,0h15.09v15.09h-15.09Zm15.827,0h15.09v15.09h-15.09Zm15.828,0h15.09v15.09h-15.09Zm15.827,0H1089v15.09h-15.09Zm15.828,0h15.09v15.09h-15.09Zm15.827,0h15.09v15.09h-15.09Zm15.828,0h15.09v15.09h-15.09Zm15.827,0h15.09v15.09h-15.09Zm15.828,0h15.09v15.09h-15.09Zm15.827,0h15.09v15.09h-15.09Zm15.828,0h15.09v15.09H1184.7Zm15.827,0h15.09v15.09h-15.09Zm15.827,0h15.091v15.09h-15.091Zm15.828,0h15.09v15.09h-15.09Zm15.828,0H1263.1v15.09H1248.01Zm15.827,15.09v-15.09h15.09v15.09Zm15.827-15.09h15.09v15.09h-15.09Zm15.828,0h15.089v15.09h-15.089Zm15.827,0h15.09v15.09h-15.09Zm15.828,0h15.089v15.09h-15.089Zm15.827,0h15.09v15.09h-15.09Zm15.828,0h15.089v15.09H1358.8Zm15.827,0h15.09v15.09h-15.09Zm15.828,0h15.089v15.09h-15.089Zm15.827,0h15.09v15.09h-15.09Zm15.827,0h15.09v15.09h-15.09Zm15.828,0h15.09v15.09h-15.09Zm15.827,0h15.09v15.09h-15.09Zm15.828,0h15.09v15.09h-15.09Zm15.827,0h15.09v15.09h-15.09Zm15.828,0h15.09v15.09h-15.09Zm15.827,0h15.09v15.09h-15.09Zm0-.738v-15.09h15.09v15.09Zm0-15.827v-15.09h15.09v15.09Zm0-15.828v-15.09h15.09v15.09Zm0-15.827v-15.09h15.09v15.09Zm0-15.828v-15.09h15.09v15.09Zm0-15.827v-15.09h15.09v15.09Zm0-15.828V-729.9h15.09v15.09Zm0-15.827v-15.09h15.09v15.09Zm0-15.828v-15.09h15.09v15.09Zm0-15.827v-15.09h15.09v15.09Zm0-15.828v-15.09h15.09v15.09Zm0-15.827v-15.09h15.09v15.09Zm0-15.828v-15.09h15.09v15.09Zm0-15.827v-15.09h15.09v15.09Zm0-15.827v-15.09h15.09v15.09Zm0-15.828v-15.09h15.09v15.09Zm0-31.661v-15.09h15.09v15.09Zm0-15.827v-15.091h15.09v15.091Zm0-15.828v-15.09h15.09v15.09Zm0-15.828V-951.49h15.09V-936.4Zm0-15.827v-15.09h15.09v15.09Zm0-15.827v-15.09h15.09v15.09Zm0-15.828v-15.09h15.09v15.09Zm0-15.827v-15.09h15.09v15.09Zm0-15.828v-15.09h15.09v15.09Zm0-15.827v-15.09h15.09v15.09Zm0-15.828v-15.09h15.09v15.09Zm0-15.827v-15.09h15.09v15.09Zm0-15.828v-15.09h15.09v15.09Zm0-15.827v-15.09h15.09v15.09Zm0-15.828v-15.09h15.09v15.09Zm0-15.827v-15.09h15.09v15.09Zm0-15.828v-15.09h15.09v15.09Zm-.737,0h-15.09v-15.09h15.09Zm-15.828,0h-15.09v-15.09h15.09Zm-15.827,0h-15.09v-15.09h15.09Zm-15.828,0h-15.09v-15.09h15.09Zm-15.827,0h-15.09v-15.09h15.09Zm-15.828,0h-15.09v-15.09h15.09Zm-15.827,0h-15.09v-15.09h15.09Zm-15.828,0h-15.089v-15.09h15.089Zm-15.827,0h-15.09v-15.09h15.09Zm-15.828,0H1358.8v-15.09h15.089Zm-15.827,0h-15.09v-15.09h15.09Zm-15.828,0h-15.089v-15.09h15.089Zm-15.827,0h-15.09v-15.09h15.09Zm-15.828,0h-15.089v-15.09h15.089Zm-15.827,0h-15.09v-15.09h15.09Zm-15.827,0h-15.09v-15.09h15.09Zm-15.829-15.09v15.09h-15.09v-15.09h15.09Zm-15.827,15.09h-15.09v-15.09h15.09Zm-15.828,0h-15.09v-15.09h15.09Zm-15.827,0h-15.09v-15.09h15.09Zm-15.828,0H1184.7v-15.09h15.09Zm-15.827,0h-15.09v-15.09h15.09Zm-15.828,0h-15.09v-15.09h15.09Zm-15.827,0h-15.09v-15.09h15.09Zm-15.828,0h-15.09v-15.09h15.09Zm-15.827,0h-15.09v-15.09h15.09Zm-15.828,0h-15.09v-15.09h15.09Zm-15.827,0h-15.09v-15.09H1089Zm-15.828,0h-15.09v-15.09h15.09Zm-15.827,0h-15.09v-15.09h15.09Zm-15.828,0h-15.09v-15.09h15.09Zm-15.827,0H1010.6v-15.09h15.09Zm-15.828,0h-15.09v-15.09h15.09Zm-15.827,0h-15.09v-15.09h15.09Zm0,.737v15.09h-15.09v-15.09Zm0,15.828v15.09h-15.09v-15.09Zm0,15.827v15.09h-15.09v-15.09Zm0,15.828v15.09h-15.09v-15.09Zm0,15.827v15.09h-15.09v-15.09Zm0,15.828v15.09h-15.09v-15.09Zm0,15.827v15.09h-15.09v-15.09Zm0,15.828v15.09h-15.09v-15.09Zm0,15.827v15.09h-15.09v-15.09Zm0,15.828v15.09h-15.09v-15.09Zm0,15.827v15.09h-15.09v-15.09Zm0,15.828v15.09h-15.09v-15.09Zm0,15.827v15.09h-15.09v-15.09Zm0,15.828v15.09h-15.09v-15.09Zm0,15.827v15.09h-15.09v-15.09Zm0,15.828v15.09h-15.09v-15.09Zm0,15.827v15.09H978.946V-887.8h0v-.384Zm-30.916,15.835h15.089v15.089H963.119Zm30.917,15.827v15.09h-15.09v-15.09Zm0,15.828V-825.6h-15.09v-15.089Zm0,15.827v15.09h-15.09v-15.09Zm0,15.828v15.089h-15.09v-15.089Zm0,15.827v15.09h-15.09v-15.09Zm0,15.828v15.089h-15.09v-15.089Zm0,15.827v15.09h-15.09v-15.09Zm0,15.827v15.09h-15.09v-15.09Zm0,15.828v15.09h-15.09V-729.9Zm0,15.827v15.09h-15.09v-15.09Zm0,15.828v15.09h-15.09v-15.09Zm0,15.827v15.09h-15.09v-15.09Zm0,15.828v15.09h-15.09v-15.09Zm0,15.827v15.09h-15.09v-15.09Zm0,15.828v15.09h-15.09v-15.09Zm0,15.827v15.09h-15.09v-15.09Zm0,15.828v15.09h-15.09v-15.09Zm.738,0h15.09v15.09h-15.09Zm15.827,0h15.09v15.09H1010.6Zm15.828,0h15.09v15.09h-15.09Zm15.827,0h15.09v15.09h-15.09Zm15.828,0h15.09v15.09h-15.09Zm15.827,0H1089v15.09h-15.09Zm15.828,0h15.09v15.09h-15.09Zm15.827,0h15.09v15.09h-15.09Zm15.828,0h15.09v15.09h-15.09Zm15.827,0h15.09v15.09h-15.09Zm15.828,0h15.09v15.09h-15.09Zm15.827,0h15.09v15.09h-15.09Zm15.828,0h15.09v15.09H1184.7Zm15.827,0h15.09v15.09h-15.09Zm15.827,0h15.091v15.09h-15.091Zm15.828,0h15.09v15.09h-15.09Zm15.828,0H1263.1v15.089H1248.01Zm15.827,15.089v-15.089h15.09v15.089Zm15.827-15.09h15.09v15.09h-15.09Zm15.828,0h15.089v15.09h-15.089Zm15.827,0h15.09v15.09h-15.09Zm15.828,0h15.089v15.09h-15.089Zm15.827,0h15.09v15.09h-15.09Zm15.828,0h15.089v15.09H1358.8Zm15.827,0h15.09v15.09h-15.09Zm15.828,0h15.089v15.09h-15.089Zm15.827,0h15.09v15.09h-15.09Zm15.827,0h15.09v15.09h-15.09Zm15.828,0h15.09v15.09h-15.09Zm15.827,0h15.09v15.09h-15.09Zm15.828,0h15.09v15.09h-15.09Zm15.827,0h15.09v15.09h-15.09Zm15.828,0h15.09v15.09h-15.09Zm15.827,0h15.09v15.09h-15.09Zm15.828,0h15.09v15.09H1532.9Zm0-.737v-15.09h15.09v15.09Zm0-15.828v-15.09h15.09v15.09Zm0-15.827v-15.09h15.09v15.09Zm0-15.828v-15.09h15.09v15.09Zm0-15.827v-15.09h15.09v15.09Zm0-15.828v-15.09h15.09v15.09Zm0-15.827v-15.09h15.09v15.09Zm0-15.828V-729.9h15.09v15.09Zm0-15.827v-15.09h15.09v15.09Zm0-15.828v-15.09h15.09v15.09Zm0-15.827v-15.09h15.09v15.09Zm0-15.828v-15.09h15.09v15.09Zm0-15.827v-15.09h15.09v15.09Zm0-15.828v-15.09h15.09v15.09Zm0-15.827v-15.09h15.09v15.09Zm0-15.827v-15.09h15.09v15.09Zm0-15.828v-15.09h15.09v15.09Zm0-31.661v-15.09h15.09v15.09Zm0-15.827v-15.091h15.09v15.091Zm0-15.828v-15.09h15.09v15.09Zm0-15.828V-951.49h15.09V-936.4Zm0-15.827v-15.09h15.09v15.09Zm0-15.827v-15.09h15.09v15.09Zm0-15.828v-15.09h15.09v15.09Zm0-15.827v-15.09h15.09v15.09Zm0-15.828v-15.09h15.09v15.09Zm0-15.827v-15.09h15.09v15.09Zm0-15.828v-15.09h15.09v15.09Zm0-15.827v-15.09h15.09v15.09Zm0-15.828v-15.09h15.09v15.09Zm0-15.827v-15.09h15.09v15.09Zm0-15.828v-15.09h15.09v15.09Zm0-15.827v-15.09h15.09v15.09Zm0-15.828v-15.09h15.09v15.09Zm0-15.827v-15.09h15.09v15.09Zm-.738,0h-15.09v-15.09h15.09Zm-15.827,0h-15.09v-15.09h15.09Zm-15.828,0h-15.09v-15.09h15.09Zm-15.827,0h-15.09v-15.09h15.09Zm-15.828,0h-15.09v-15.09h15.09Zm-15.827,0h-15.09v-15.09h15.09Zm-15.828,0h-15.09v-15.09h15.09Zm-15.827,0h-15.09v-15.09h15.09Zm-15.828,0h-15.089v-15.09h15.089Zm-15.827,0h-15.09v-15.09h15.09Zm-15.828,0H1358.8v-15.09h15.089Zm-15.827,0h-15.09v-15.09h15.09Zm-15.828,0h-15.089v-15.09h15.089Zm-15.827,0h-15.09v-15.09h15.09Zm-15.828,0h-15.089v-15.09h15.089Zm-15.827,0h-15.09v-15.09h15.09Zm-15.827,0h-15.09v-15.089h15.09Zm-15.829-15.089v15.089h-15.09v-15.09h15.09Zm-15.827,15.089h-15.09v-15.09h15.09Zm-15.828,0h-15.09v-15.09h15.09Zm-15.827,0h-15.09v-15.09h15.09Zm-15.828,0H1184.7v-15.09h15.09Zm-15.827,0h-15.09v-15.09h15.09Zm-15.828,0h-15.09v-15.09h15.09Zm-15.827,0h-15.09v-15.09h15.09Zm-15.828,0h-15.09v-15.09h15.09Zm-15.827,0h-15.09v-15.09h15.09Zm-15.828,0h-15.09v-15.09h15.09Zm-15.827,0h-15.09v-15.09H1089Zm-15.828,0h-15.09v-15.09h15.09Zm-15.827,0h-15.09v-15.09h15.09Zm-15.828,0h-15.09v-15.09h15.09Zm-15.827,0H1010.6v-15.09h15.09Zm-15.828,0h-15.09v-15.09h15.09Zm-15.827,0h-15.09v-15.09h15.09Zm-15.828,0H963.118v-15.09h15.089Zm0,.738v15.09H963.118v-15.09Zm0,15.827v15.09H963.118v-15.09Zm0,15.828v15.09H963.118v-15.09Zm0,15.827v15.09H963.118v-15.09Zm0,15.828v15.09H963.118v-15.09Zm0,15.827v15.09H963.118v-15.09Zm0,15.828v15.09H963.118v-15.09Zm0,15.827v15.09H963.118v-15.09Zm0,15.828v15.09H963.118v-15.09Zm0,15.827v15.09H963.118v-15.09Zm0,15.828v15.09H963.118v-15.09Zm0,15.827v15.09H963.118v-15.09Zm0,15.828v15.09H963.118v-15.09Zm0,15.827v15.09H963.118v-15.09Zm0,15.828v15.09H963.118v-15.09Zm0,15.827v15.09H963.118v-15.09Zm0,15.828v15.09H963.118v-15.09Zm0,15.827v15.09H963.119V-887.8h0v-.384Zm-30.916,15.835H962.38v15.089H947.291Zm30.918,15.827v15.09h-15.09v-15.09Zm0,15.828V-825.6h-15.09v-15.089Zm0,15.827v15.09h-15.09v-15.09Zm0,15.828v15.089h-15.09v-15.089Zm0,15.827v15.09h-15.09v-15.09Zm0,15.828v15.089h-15.09v-15.089Zm0,15.827v15.09h-15.09v-15.09Zm0,15.827v15.09h-15.09v-15.09Zm0,15.828v15.09h-15.09V-729.9Zm0,15.827v15.09h-15.09v-15.09Zm0,15.828v15.09h-15.09v-15.09Zm0,15.827v15.09h-15.09v-15.09Zm0,15.828v15.09h-15.09v-15.09Zm0,15.827v15.09h-15.09v-15.09Zm0,15.828v15.09h-15.09v-15.09Zm0,15.827v15.09h-15.09v-15.09Zm0,15.828v15.09h-15.09v-15.09Zm0,15.827v15.09h-15.09v-15.09Zm.737,0h15.09v15.09h-15.09Zm15.828,0h15.09v15.09h-15.09Zm15.827,0h15.09v15.09H1010.6Zm15.828,0h15.09v15.09h-15.09Zm15.827,0h15.09v15.09h-15.09Zm15.828,0h15.09v15.09h-15.09Zm15.827,0H1089v15.09h-15.09Zm15.828,0h15.09v15.09h-15.09Zm15.827,0h15.09v15.09h-15.09Zm15.828,0h15.09v15.09h-15.09Zm15.827,0h15.09v15.09h-15.09Zm15.828,0h15.09v15.09h-15.09Zm15.827,0h15.09v15.09h-15.09Zm15.828,0h15.09v15.09H1184.7Zm15.827,0h15.09v15.09h-15.09Zm15.827,0h15.091v15.09h-15.091Zm15.828,0h15.09v15.09h-15.09Zm15.828,0H1263.1v15.09H1248.01Zm15.827,15.09v-15.09h15.09v15.09Zm15.827-15.09h15.09v15.09h-15.09Zm15.828,0h15.089v15.09h-15.089Zm15.827,0h15.09v15.09h-15.09Zm15.828,0h15.089v15.09h-15.089Zm15.827,0h15.09v15.09h-15.09Zm15.828,0h15.089v15.09H1358.8Zm15.827,0h15.09v15.09h-15.09Zm15.828,0h15.089v15.09h-15.089Zm15.827,0h15.09v15.09h-15.09Zm15.827,0h15.09v15.09h-15.09Zm15.828,0h15.09v15.09h-15.09Zm15.827,0h15.09v15.09h-15.09Zm15.828,0h15.09v15.09h-15.09Zm15.827,0h15.09v15.09h-15.09Zm15.828,0h15.09v15.09h-15.09Zm15.827,0h15.09v15.09h-15.09Zm15.828,0h15.09v15.09H1532.9Zm15.827,0h15.09v15.09h-15.09Zm0-.738v-15.09h15.09v15.09Zm0-15.827v-15.09h15.09v15.09Zm0-15.828v-15.09h15.09v15.09Zm0-15.827v-15.09h15.09v15.09Zm0-15.828v-15.09h15.09v15.09Zm0-15.827v-15.09h15.09v15.09Zm0-15.828v-15.09h15.09v15.09Zm0-15.827v-15.09h15.09v15.09Zm0-15.828V-729.9h15.09v15.09Zm0-15.827v-15.09h15.09v15.09Zm0-15.828v-15.09h15.09v15.09Zm0-15.827v-15.09h15.09v15.09Zm0-15.828v-15.09h15.09v15.09Zm0-15.827v-15.09h15.09v15.09Zm0-15.828v-15.09h15.09v15.09Zm0-15.827v-15.09h15.09v15.09Zm0-15.827v-15.09h15.09v15.09Zm0-15.828v-15.09h15.09v15.09Zm0-31.661v-15.09h15.09v15.09Zm0-15.827v-15.091h15.09v15.091Zm0-15.828v-15.09h15.09v15.09Zm0-15.828V-951.49h15.09V-936.4Zm0-15.827v-15.09h15.09v15.09Zm0-15.827v-15.09h15.09v15.09Zm0-15.828v-15.09h15.09v15.09Zm0-15.827v-15.09h15.09v15.09Zm0-15.828v-15.09h15.09v15.09Zm0-15.827v-15.09h15.09v15.09Zm0-15.828v-15.09h15.09v15.09Zm0-15.827v-15.09h15.09v15.09Zm0-15.828v-15.09h15.09v15.09Zm0-15.827v-15.09h15.09v15.09Zm0-15.828v-15.09h15.09v15.09Zm0-15.827v-15.09h15.09v15.09Zm0-15.828v-15.09h15.09v15.09Zm0-15.827v-15.09h15.09v15.09Zm0-15.828v-15.09h15.09v15.09Zm-.737,0H1532.9v-15.09h15.09Zm-15.828,0h-15.09v-15.09h15.09Zm-15.827,0h-15.09v-15.09h15.09Zm-15.828,0h-15.09v-15.09h15.09Zm-15.827,0h-15.09v-15.09h15.09Zm-15.828,0h-15.09v-15.09h15.09Zm-15.827,0h-15.09v-15.09h15.09Zm-15.828,0h-15.09v-15.09h15.09Zm-15.827,0h-15.09v-15.09h15.09Zm-15.828,0h-15.089v-15.09h15.089Zm-15.827,0h-15.09v-15.09h15.09Zm-15.828,0H1358.8v-15.09h15.089Zm-15.827,0h-15.09v-15.09h15.09Zm-15.828,0h-15.089v-15.09h15.089Zm-15.827,0h-15.09v-15.09h15.09Zm-15.828,0h-15.089v-15.09h15.089Zm-15.827,0h-15.09v-15.09h15.09Zm-15.827,0h-15.09v-15.09h15.09ZM1263.1-1188.9v15.09h-15.09v-15.09h15.09Zm-15.827,15.09h-15.09v-15.09h15.09Zm-15.828,0h-15.09v-15.09h15.09Zm-15.827,0h-15.09v-15.09h15.09Zm-15.828,0H1184.7v-15.09h15.09Zm-15.827,0h-15.09v-15.09h15.09Zm-15.828,0h-15.09v-15.09h15.09Zm-15.827,0h-15.09v-15.09h15.09Zm-15.828,0h-15.09v-15.09h15.09Zm-15.827,0h-15.09v-15.09h15.09Zm-15.828,0h-15.09v-15.09h15.09Zm-15.827,0h-15.09v-15.09H1089Zm-15.828,0h-15.09v-15.09h15.09Zm-15.827,0h-15.09v-15.09h15.09Zm-15.828,0h-15.09v-15.09h15.09Zm-15.827,0H1010.6v-15.09h15.09Zm-15.828,0h-15.09v-15.09h15.09Zm-15.827,0h-15.09v-15.09h15.09Zm-15.828,0H963.118v-15.09h15.089Zm-15.827,0H947.29v-15.09h15.09Zm0,.737v15.09H947.29v-15.09Zm0,15.828v15.09H947.29v-15.09Zm0,15.827v15.09H947.29v-15.09Zm0,15.828v15.09H947.29v-15.09Zm0,15.827v15.09H947.29v-15.09Zm0,15.828v15.09H947.29v-15.09Zm0,15.827v15.09H947.29v-15.09Zm0,15.828v15.09H947.29v-15.09Zm0,15.827v15.09H947.29v-15.09Zm0,15.828v15.09H947.29v-15.09Zm0,15.827v15.09H947.29v-15.09Zm0,15.828v15.09H947.29v-15.09Zm0,15.827v15.09H947.29v-15.09Zm0,15.828v15.09H947.29v-15.09Zm0,15.827v15.09H947.29v-15.09Zm0,15.828v15.09H947.29v-15.09Zm0,15.827v15.09H947.29v-15.09Zm0,15.828v15.09H947.29v-15.09Zm0,15.827v15.09H947.291V-887.8h0v-.384Zm-30.916,15.835h15.089v15.089H931.464Zm30.917,15.827v15.09h-15.09v-15.09Zm0,15.828V-825.6h-15.09v-15.089Zm0,15.827v15.09h-15.09v-15.09Zm0,15.828v15.089h-15.09v-15.089Zm0,15.827v15.09h-15.09v-15.09Zm0,15.828v15.089h-15.09v-15.089Zm0,15.827v15.09h-15.09v-15.09Zm0,15.827v15.09h-15.09v-15.09Zm0,15.828v15.09h-15.09V-729.9Zm0,15.827v15.09h-15.09v-15.09Zm0,15.828v15.09h-15.09v-15.09Zm0,15.827v15.09h-15.09v-15.09Zm0,15.828v15.09h-15.09v-15.09Zm0,15.827v15.09h-15.09v-15.09Zm0,15.828v15.09h-15.09v-15.09Zm0,15.827v15.09h-15.09v-15.09Zm0,15.828v15.09h-15.09v-15.09Zm0,15.827v15.09h-15.09v-15.09Zm0,15.828v15.09h-15.09v-15.09Zm.738,0h15.09v15.09h-15.09Zm15.827,0h15.09v15.09h-15.09Zm15.828,0h15.09v15.09h-15.09Zm15.827,0h15.09v15.09H1010.6Zm15.828,0h15.09v15.09h-15.09Zm15.827,0h15.09v15.09h-15.09Zm15.828,0h15.09v15.09h-15.09Zm15.827,0H1089v15.09h-15.09Zm15.828,0h15.09v15.09h-15.09Zm15.827,0h15.09v15.09h-15.09Zm15.828,0h15.09v15.09h-15.09Zm15.827,0h15.09v15.09h-15.09Zm15.828,0h15.09v15.09h-15.09Zm15.827,0h15.09v15.09h-15.09Zm15.828,0h15.09v15.09H1184.7Zm15.827,0h15.09v15.09h-15.09Zm15.827,0h15.091v15.09h-15.091Zm15.828,0h15.09v15.09h-15.09Zm15.828,0H1263.1v15.089H1248.01Zm15.827,15.089v-15.089h15.09v15.089Zm15.827-15.09h15.09v15.09h-15.09Zm15.828,0h15.089v15.09h-15.089Zm15.827,0h15.09v15.09h-15.09Zm15.828,0h15.089v15.09h-15.089Zm15.827,0h15.09v15.09h-15.09Zm15.828,0h15.089v15.09H1358.8Zm15.827,0h15.09v15.09h-15.09Zm15.828,0h15.089v15.09h-15.089Zm15.827,0h15.09v15.09h-15.09Zm15.827,0h15.09v15.09h-15.09Zm15.828,0h15.09v15.09h-15.09Zm15.827,0h15.09v15.09h-15.09Zm15.828,0h15.09v15.09h-15.09Zm15.827,0h15.09v15.09h-15.09Zm15.828,0h15.09v15.09h-15.09Zm15.827,0h15.09v15.09h-15.09Zm15.828,0h15.09v15.09H1532.9Zm15.827,0h15.09v15.09h-15.09Zm15.828,0h15.09v15.09h-15.09Zm0-.737v-15.09h15.09v15.09Zm0-15.828v-15.09h15.09v15.09Zm0-15.827v-15.09h15.09v15.09Zm0-15.828v-15.09h15.09v15.09Zm0-15.827v-15.09h15.09v15.09Zm0-15.828v-15.09h15.09v15.09Zm0-15.827v-15.09h15.09v15.09Zm0-15.828v-15.09h15.09v15.09Zm0-15.827v-15.09h15.09v15.09Zm0-15.828V-729.9h15.09v15.09Zm0-15.827v-15.09h15.09v15.09Zm0-15.828v-15.09h15.09v15.09Zm0-15.827v-15.09h15.09v15.09Zm0-15.828v-15.09h15.09v15.09Zm0-15.827v-15.09h15.09v15.09Zm0-15.828v-15.09h15.09v15.09Zm0-15.827v-15.09h15.09v15.09Zm0-15.827v-15.09h15.09v15.09Zm0-15.828v-15.09h15.09v15.09Zm0-31.661v-15.09h15.09v15.09Zm0-15.827v-15.091h15.09v15.091Zm0-15.828v-15.09h15.09v15.09Zm0-15.828V-951.49h15.09V-936.4Zm0-15.827v-15.09h15.09v15.09Zm0-15.827v-15.09h15.09v15.09Zm0-15.828v-15.09h15.09v15.09Zm0-15.827v-15.09h15.09v15.09Zm0-15.828v-15.09h15.09v15.09Zm0-15.827v-15.09h15.09v15.09Zm0-15.828v-15.09h15.09v15.09Zm0-15.827v-15.09h15.09v15.09Zm0-15.828v-15.09h15.09v15.09Zm0-15.827v-15.09h15.09v15.09Zm0-15.828v-15.09h15.09v15.09Zm0-15.827v-15.09h15.09v15.09Zm0-15.828v-15.09h15.09v15.09Zm0-15.827v-15.09h15.09v15.09Zm0-15.828v-15.09h15.09v15.09Zm0-15.827v-15.09h15.09v15.09Zm-.738,0h-15.09v-15.09h15.09Zm-15.827,0H1532.9v-15.09h15.09Zm-15.828,0h-15.09v-15.09h15.09Zm-15.827,0h-15.09v-15.09h15.09Zm-15.828,0h-15.09v-15.09h15.09Zm-15.827,0h-15.09v-15.09h15.09Zm-15.828,0h-15.09v-15.09h15.09Zm-15.827,0h-15.09v-15.09h15.09Zm-15.828,0h-15.09v-15.09h15.09Zm-15.827,0h-15.09v-15.09h15.09Zm-15.828,0h-15.089v-15.09h15.089Zm-15.827,0h-15.09v-15.09h15.09Zm-15.828,0H1358.8v-15.09h15.089Zm-15.827,0h-15.09v-15.09h15.09Zm-15.828,0h-15.089v-15.09h15.089Zm-15.827,0h-15.09v-15.09h15.09Zm-15.828,0h-15.089v-15.09h15.089Zm-15.827,0h-15.09v-15.09h15.09Zm-15.827,0h-15.09v-15.089h15.09Zm-15.829-15.089v15.089h-15.09v-15.09h15.09Zm-15.827,15.089h-15.09v-15.09h15.09Zm-15.828,0h-15.09v-15.09h15.09Zm-15.827,0h-15.09v-15.09h15.09Zm-15.828,0H1184.7v-15.09h15.09Zm-15.827,0h-15.09v-15.09h15.09Zm-15.828,0h-15.09v-15.09h15.09Zm-15.827,0h-15.09v-15.09h15.09Zm-15.828,0h-15.09v-15.09h15.09Zm-15.827,0h-15.09v-15.09h15.09Zm-15.828,0h-15.09v-15.09h15.09Zm-15.827,0h-15.09v-15.09H1089Zm-15.828,0h-15.09v-15.09h15.09Zm-15.827,0h-15.09v-15.09h15.09Zm-15.828,0h-15.09v-15.09h15.09Zm-15.827,0H1010.6v-15.09h15.09Zm-15.828,0h-15.09v-15.09h15.09Zm-15.827,0h-15.09v-15.09h15.09Zm-15.828,0H963.118v-15.09h15.089Zm-15.827,0H947.29v-15.09h15.09Zm-15.828,0H931.463v-15.09h15.089Zm0,.738v15.09H931.463v-15.09Zm0,15.827v15.09H931.463v-15.09Zm0,15.828v15.09H931.463v-15.09Zm0,15.827v15.09H931.463v-15.09Zm0,15.828v15.09H931.463v-15.09Zm0,15.827v15.09H931.463v-15.09Zm0,15.828v15.09H931.463v-15.09Zm0,15.827v15.09H931.463v-15.09Zm0,15.828v15.09H931.463v-15.09Zm0,15.827v15.09H931.463v-15.09Zm0,15.828v15.09H931.463v-15.09Zm0,15.827v15.09H931.463v-15.09Zm0,15.828v15.09H931.463v-15.09Zm0,15.827v15.09H931.463v-15.09Zm0,15.828v15.09H931.463v-15.09Zm0,15.827v15.09H931.463v-15.09Zm0,15.828v15.09H931.463v-15.09Zm0,15.827v15.09H931.463v-15.09Zm0,15.828v15.09H931.463v-15.09Zm0,15.827v15.09H931.464V-887.8h0v-.384Zm-30.916,15.835h15.089v15.089H915.636Zm30.918,15.827v15.09h-15.09v-15.09Zm0,15.828V-825.6h-15.09v-15.089Zm0,15.827v15.09h-15.09v-15.09Zm0,15.828v15.089h-15.09v-15.089Zm0,15.827v15.09h-15.09v-15.09Zm0,15.828v15.089h-15.09v-15.089Zm0,15.827v15.09h-15.09v-15.09Zm0,15.827v15.09h-15.09v-15.09Zm0,15.828v15.09h-15.09V-729.9Zm0,15.827v15.09h-15.09v-15.09Zm0,15.828v15.09h-15.09v-15.09Zm0,15.827v15.09h-15.09v-15.09Zm0,15.828v15.09h-15.09v-15.09Zm0,15.827v15.09h-15.09v-15.09Zm0,15.828v15.09h-15.09v-15.09Zm0,15.827v15.09h-15.09v-15.09Zm0,15.828v15.09h-15.09v-15.09Zm0,15.827v15.09h-15.09v-15.09Zm0,15.828v15.09h-15.09v-15.09Zm0,15.827v15.09h-15.09V-555.8Zm.737,0h15.09v15.09h-15.09Zm15.828,0h15.09v15.09h-15.09Zm15.827,0h15.09v15.09h-15.09Zm15.828,0h15.09v15.09h-15.09Zm15.827,0h15.09v15.09H1010.6Zm15.828,0h15.09v15.09h-15.09Zm15.827,0h15.09v15.09h-15.09Zm15.828,0h15.09v15.09h-15.09Zm15.827,0H1089v15.09h-15.09Zm15.828,0h15.09v15.09h-15.09Zm15.827,0h15.09v15.09h-15.09Zm15.828,0h15.09v15.09h-15.09Zm15.827,0h15.09v15.09h-15.09Zm15.828,0h15.09v15.09h-15.09Zm15.827,0h15.09v15.09h-15.09Zm15.828,0h15.09v15.09H1184.7Zm15.827,0h15.09v15.09h-15.09Zm15.827,0h15.091v15.09h-15.091Zm15.828,0h15.09v15.09h-15.09Zm15.828,0H1263.1v15.09H1248.01Zm15.827,15.09V-555.8h15.09v15.09Zm15.827-15.091h15.09v15.091h-15.09Zm15.828,0h15.089v15.091h-15.089Zm15.827,0h15.09v15.091h-15.09Zm15.828,0h15.089v15.091h-15.089Zm15.827,0h15.09v15.091h-15.09Zm15.828,0h15.089v15.091H1358.8Zm15.827,0h15.09v15.091h-15.09Zm15.828,0h15.089v15.091h-15.089Zm15.827,0h15.09v15.091h-15.09Zm15.827,0h15.09v15.091h-15.09Zm15.828,0h15.09v15.091h-15.09Zm15.827,0h15.09v15.091h-15.09Zm15.828,0h15.09v15.091h-15.09Zm15.827,0h15.09v15.091h-15.09Zm15.828,0h15.09v15.091h-15.09Zm15.827,0h15.09v15.091h-15.09Zm15.828,0h15.09v15.091H1532.9Zm15.827,0h15.09v15.091h-15.09Zm15.828,0h15.09v15.091h-15.09Zm15.827,0h15.09v15.091h-15.09Zm0-.737v-15.09h15.09v15.09Zm0-15.827v-15.09h15.09v15.09Zm0-15.828v-15.09h15.09v15.09Zm0-15.827v-15.09h15.09v15.09Zm0-15.828v-15.09h15.09v15.09Zm0-15.827v-15.09h15.09v15.09Zm0-15.828v-15.09h15.09v15.09Zm0-15.827v-15.09h15.09v15.09Zm0-15.828v-15.09h15.09v15.09Zm0-15.827v-15.09h15.09v15.09Zm0-15.828V-729.9h15.09v15.09Zm0-15.827v-15.09h15.09v15.09Zm0-15.828v-15.09h15.09v15.09Zm0-15.827v-15.09h15.09v15.09Zm0-15.828v-15.09h15.09v15.09Zm0-15.827v-15.09h15.09v15.09Zm0-15.828v-15.09h15.09v15.09Zm0-15.827v-15.09h15.09v15.09Zm0-15.827v-15.09h15.09v15.09Zm0-15.828v-15.09h15.09v15.09Zm0-31.661v-15.09h15.09v15.09Zm0-15.827v-15.091h15.09v15.091Zm0-15.828v-15.09h15.09v15.09Zm0-15.828V-951.49h15.09V-936.4Zm0-15.827v-15.09h15.09v15.09Zm0-15.827v-15.09h15.09v15.09Zm0-15.828v-15.09h15.09v15.09Zm0-15.827v-15.09h15.09v15.09Zm0-15.828v-15.09h15.09v15.09Zm0-15.827v-15.09h15.09v15.09Zm0-15.828v-15.09h15.09v15.09Zm0-15.827v-15.09h15.09v15.09Zm0-15.828v-15.09h15.09v15.09Zm0-15.827v-15.09h15.09v15.09Zm0-15.828v-15.09h15.09v15.09Zm0-15.827v-15.09h15.09v15.09Zm0-15.828v-15.09h15.09v15.09Zm0-15.827v-15.09h15.09v15.09Zm0-15.828v-15.09h15.09v15.09Zm0-15.827v-15.09h15.09v15.09Zm0-15.828v-15.09h15.09v15.09Zm-.737,0h-15.09v-15.09h15.09Zm-15.828,0h-15.09v-15.09h15.09Zm-15.827,0H1532.9v-15.09h15.09Zm-15.828,0h-15.09v-15.09h15.09Zm-15.827,0h-15.09v-15.09h15.09Zm-15.828,0h-15.09v-15.09h15.09Zm-15.827,0h-15.09v-15.09h15.09Zm-15.828,0h-15.09v-15.09h15.09Zm-15.827,0h-15.09v-15.09h15.09Zm-15.828,0h-15.09v-15.09h15.09Zm-15.827,0h-15.09v-15.09h15.09Zm-15.828,0h-15.089v-15.09h15.089Zm-15.827,0h-15.09v-15.09h15.09Zm-15.828,0H1358.8v-15.09h15.089Zm-15.827,0h-15.09v-15.09h15.09Zm-15.828,0h-15.089v-15.09h15.089Zm-15.827,0h-15.09v-15.09h15.09Zm-15.828,0h-15.089v-15.09h15.089Zm-15.827,0h-15.09v-15.09h15.09Zm-15.827,0h-15.09v-15.09h15.09Zm0-15.828h-15.09v-15.089h15.09Zm-15.829.738v15.09h-15.09v-15.09h15.09Zm-15.827,15.09h-15.09v-15.09h15.09Zm-15.828,0h-15.09v-15.09h15.09Zm-15.827,0h-15.09v-15.09h15.09Zm-15.828,0H1184.7v-15.09h15.09Zm-15.827,0h-15.09v-15.09h15.09Zm-15.828,0h-15.09v-15.09h15.09Zm-15.827,0h-15.09v-15.09h15.09Zm-15.828,0h-15.09v-15.09h15.09Zm-15.827,0h-15.09v-15.09h15.09Zm-15.828,0h-15.09v-15.09h15.09Zm-15.827,0h-15.09v-15.09H1089Zm-15.828,0h-15.09v-15.09h15.09Zm-15.827,0h-15.09v-15.09h15.09Zm-15.828,0h-15.09v-15.09h15.09Zm-15.827,0H1010.6v-15.09h15.09Zm-15.828,0h-15.09v-15.09h15.09Zm-15.827,0h-15.09v-15.09h15.09Zm-15.828,0H963.118v-15.09h15.089Zm-15.827,0H947.29v-15.09h15.09Zm-15.828,0H931.463v-15.09h15.089Zm-15.827,0h-15.09v-15.09h15.09Zm0,.737v15.09h-15.09v-15.09Zm0,15.828v15.09h-15.09v-15.09Zm0,15.827v15.09h-15.09v-15.09Zm0,15.828v15.09h-15.09v-15.09Zm0,15.827v15.09h-15.09v-15.09Zm0,15.828v15.09h-15.09v-15.09Zm0,15.827v15.09h-15.09v-15.09Zm0,15.828v15.09h-15.09v-15.09Zm0,15.827v15.09h-15.09v-15.09Zm0,15.828v15.09h-15.09v-15.09Zm0,15.827v15.09h-15.09v-15.09Zm0,15.828v15.09h-15.09v-15.09Zm0,15.827v15.09h-15.09v-15.09Zm0,15.828v15.09h-15.09v-15.09Zm0,15.827v15.09h-15.09v-15.09Zm0,15.828v15.09h-15.09v-15.09Zm0,15.827v15.09h-15.09v-15.09Zm0,15.828v15.09h-15.09v-15.09Zm0,15.827v15.09h-15.09v-15.09Zm0,15.828v15.09h-15.09v-15.09Zm0,15.827v15.09H915.636V-887.8h0v-.384Zm-30.916,15.835H914.9v15.089H899.809Zm30.917,15.827v15.09h-15.09v-15.09Zm0,15.828V-825.6h-15.09v-15.089Zm0,15.827v15.09h-15.09v-15.09Zm0,15.828v15.089h-15.09v-15.089Zm0,15.827v15.09h-15.09v-15.09Zm0,15.828v15.089h-15.09v-15.089Zm0,15.827v15.09h-15.09v-15.09Zm0,15.827v15.09h-15.09v-15.09Zm0,15.828v15.09h-15.09V-729.9Zm0,15.827v15.09h-15.09v-15.09Zm0,15.828v15.09h-15.09v-15.09Zm0,15.827v15.09h-15.09v-15.09Zm0,15.828v15.09h-15.09v-15.09Zm0,15.827v15.09h-15.09v-15.09Zm0,15.828v15.09h-15.09v-15.09Zm0,15.827v15.09h-15.09v-15.09Zm0,15.828v15.09h-15.09v-15.09Zm0,15.827v15.09h-15.09v-15.09Zm0,15.828v15.09h-15.09v-15.09Zm0,15.827v15.09h-15.09V-555.8Zm0,15.828v15.09h-15.09v-15.09Zm.738,0h15.09v15.09h-15.09Zm15.827,0h15.09v15.09h-15.09Zm15.828,0h15.09v15.09h-15.09Zm15.827,0h15.09v15.09h-15.09Zm15.828,0h15.09v15.09h-15.09Zm15.827,0h15.09v15.09H1010.6Zm15.828,0h15.09v15.09h-15.09Zm15.827,0h15.09v15.09h-15.09Zm15.828,0h15.09v15.09h-15.09Zm15.827,0H1089v15.09h-15.09Zm15.828,0h15.09v15.09h-15.09Zm15.827,0h15.09v15.09h-15.09Zm15.828,0h15.09v15.09h-15.09Zm15.827,0h15.09v15.09h-15.09Zm15.828,0h15.09v15.09h-15.09Zm15.827,0h15.09v15.09h-15.09Zm15.828,0h15.09v15.09H1184.7Zm15.827,0h15.09v15.09h-15.09Zm15.827,0h15.091v15.09h-15.091Zm15.828,0h15.09v15.09h-15.09Zm15.828,0H1263.1v15.089H1248.01Zm15.827,30.917v-15.09h15.09v15.09Zm0-15.828v-15.089h15.09v15.089Zm15.827-15.09h15.09v15.09h-15.09Zm15.828,0h15.089v15.09h-15.089Zm15.827,0h15.09v15.09h-15.09Zm15.828,0h15.089v15.09h-15.089Zm15.827,0h15.09v15.09h-15.09Zm15.828,0h15.089v15.09H1358.8Zm15.827,0h15.09v15.09h-15.09Zm15.828,0h15.089v15.09h-15.089Zm15.827,0h15.09v15.09h-15.09Zm15.827,0h15.09v15.09h-15.09Zm15.828,0h15.09v15.09h-15.09Zm15.827,0h15.09v15.09h-15.09Zm15.828,0h15.09v15.09h-15.09Zm15.827,0h15.09v15.09h-15.09Zm15.828,0h15.09v15.09h-15.09Zm15.827,0h15.09v15.09h-15.09Zm15.828,0h15.09v15.09H1532.9Zm15.827,0h15.09v15.09h-15.09Zm15.828,0h15.09v15.09h-15.09Zm15.827,0h15.09v15.09h-15.09Zm15.828,0h15.09v15.09h-15.09Zm0-.737V-555.8h15.09v15.091Zm0-15.828v-15.09h15.09v15.09Zm0-15.827v-15.09h15.09v15.09Zm0-15.828v-15.09h15.09v15.09Zm0-15.827v-15.09h15.09v15.09Zm0-15.828v-15.09h15.09v15.09Zm0-15.827v-15.09h15.09v15.09Zm0-15.828v-15.09h15.09v15.09Zm0-15.827v-15.09h15.09v15.09Zm0-15.828v-15.09h15.09v15.09Zm0-15.827v-15.09h15.09v15.09Zm0-15.828V-729.9h15.09v15.09Zm0-15.827v-15.09h15.09v15.09Zm0-15.828v-15.09h15.09v15.09Zm0-15.827v-15.09h15.09v15.09Zm0-15.828v-15.09h15.09v15.09Zm0-15.827v-15.09h15.09v15.09Zm0-15.828v-15.09h15.09v15.09Zm0-15.827v-15.09h15.09v15.09Zm0-15.827v-15.09h15.09v15.09Zm0-15.828v-15.09h15.09v15.09Zm0-31.661v-15.09h15.09v15.09Zm0-15.827v-15.091h15.09v15.091Zm0-15.828v-15.09h15.09v15.09Zm0-15.828V-951.49h15.09V-936.4Zm0-15.827v-15.09h15.09v15.09Zm0-15.827v-15.09h15.09v15.09Zm0-15.828v-15.09h15.09v15.09Zm0-15.827v-15.09h15.09v15.09Zm0-15.828v-15.09h15.09v15.09Zm0-15.827v-15.09h15.09v15.09Zm0-15.828v-15.09h15.09v15.09Zm0-15.827v-15.09h15.09v15.09Zm0-15.828v-15.09h15.09v15.09Zm0-15.827v-15.09h15.09v15.09Zm0-15.828v-15.09h15.09v15.09Zm0-15.827v-15.09h15.09v15.09Zm0-15.828v-15.09h15.09v15.09Zm0-15.827v-15.09h15.09v15.09Zm0-15.828v-15.09h15.09v15.09Zm0-15.827v-15.09h15.09v15.09Zm0-15.828v-15.09h15.09v15.09Zm-.738-30.917v15.09h-15.09v-15.09Zm-15.827,0v15.09h-15.09v-15.09Zm-15.828,0v15.09h-15.09v-15.09Zm-15.827,0v15.09H1532.9v-15.09Zm-15.828,0v15.09h-15.09v-15.09Zm-15.827,0v15.09h-15.09v-15.09Zm-15.828,0v15.09h-15.09v-15.09Zm-15.827,0v15.09h-15.09v-15.09Zm-15.828,0v15.09h-15.09v-15.09Zm-15.827,0v15.09h-15.09v-15.09Zm-15.828,0v15.09h-15.09v-15.09Zm-15.827,0v15.09h-15.09v-15.09Zm-15.828,0v15.09h-15.089v-15.09Zm-15.827,0v15.09h-15.09v-15.09Zm-15.828,0v15.09H1358.8v-15.09Zm-15.827,0v15.09h-15.09v-15.09Zm-15.828,0v15.09h-15.089v-15.09Zm-15.827,0v15.09h-15.09v-15.09Zm-15.828,0v15.09h-15.089v-15.09Zm-15.827,0v15.09h-15.09v-15.09Zm-46.552,0h14.9v15.089h-15.09v-15.09Zm-.93,0v15.09h-15.09v-15.09Zm-15.828,0v15.09h-15.09v-15.09Zm-15.827,0v15.09h-15.09v-15.09Zm-15.828,0v15.09H1184.7v-15.09Zm-15.827,0v15.09h-15.09v-15.09Zm-15.828,0v15.09h-15.09v-15.09Zm-15.827,0v15.09h-15.09v-15.09Zm-15.828,0v15.09h-15.09v-15.09Zm-15.827,0v15.09h-15.09v-15.09Zm-15.828,0v15.09h-15.09v-15.09Zm-15.827,0v15.09h-15.09v-15.09Zm-15.828,0v15.09h-15.09v-15.09Zm-15.827,0v15.09h-15.09v-15.09Zm-15.828,0v15.09h-15.09v-15.09Zm-15.827,0v15.09H1010.6v-15.09Zm-15.828,0v15.09h-15.09v-15.09Zm-15.827,0v15.09h-15.09v-15.09Zm-15.828,0v15.09H963.118v-15.09Zm-15.827,0v15.09H947.29v-15.09Zm-15.828,0v15.09H931.463v-15.09Zm-15.827,0v15.09h-15.09v-15.09Zm-30.917,0H914.9v15.09H899.809Zm0,15.828H914.9v15.09H899.809Zm0,15.827H914.9v15.09H899.809Zm0,15.828H914.9v15.09H899.809Zm0,15.827H914.9v15.09H899.809Zm0,15.828H914.9v15.09H899.809Zm0,15.827H914.9v15.09H899.809Zm0,15.828H914.9v15.09H899.809Zm0,15.827H914.9v15.09H899.809Zm0,15.828H914.9v15.09H899.809Zm0,15.827H914.9v15.09H899.809Zm0,15.828H914.9v15.09H899.809Zm0,15.827H914.9v15.09H899.809Zm0,15.828H914.9v15.09H899.809Zm0,15.827H914.9v15.09H899.809Zm0,15.828H914.9v15.09H899.809Zm0,15.827H914.9v15.09H899.809Zm0,15.828H914.9v15.09H899.809Zm0,15.827H914.9v15.09H899.809Zm0,15.828H914.9v15.09H899.809Zm0,15.827H914.9v15.09H899.809Zm0,15.828H914.9v15.09H899.809ZM914.9-888.182v15.09H899.809V-887.8h0v-.384ZM899.809-856.52H914.9v15.09h-15.09Zm0,15.828H914.9V-825.6h-15.09Zm0,15.827H914.9v15.09h-15.09Zm0,15.828H914.9v15.089h-15.09Zm0,15.827H914.9v15.09h-15.09Zm0,15.828H914.9v15.089h-15.09Zm0,15.827H914.9v15.09h-15.09Zm0,15.827H914.9v15.09h-15.09Zm0,15.828H914.9v15.09h-15.09Zm0,15.827H914.9v15.09h-15.09Zm0,15.828H914.9v15.09h-15.09Zm0,15.827H914.9v15.09h-15.09Zm0,15.828H914.9v15.09h-15.09Zm0,15.827H914.9v15.09h-15.09Zm0,15.828H914.9v15.09h-15.09Zm0,15.827H914.9v15.09h-15.09Zm0,15.828H914.9v15.09h-15.09Zm0,15.827H914.9v15.09h-15.09Zm0,15.828H914.9v15.09h-15.09Zm0,15.827H914.9v15.09h-15.09Zm0,15.828H914.9v15.09h-15.09Zm0,30.917v-15.09H914.9v15.09Zm15.827,0v-15.09h15.09v15.09Zm15.828,0v-15.09h15.09v15.09Zm15.827,0v-15.09h15.09v15.09Zm15.828,0v-15.09h15.09v15.09Zm15.827,0v-15.09h15.09v15.09Zm15.828,0v-15.09h15.09v15.09Zm15.827,0v-15.09h15.09v15.09Zm15.828,0v-15.09h15.09v15.09Zm15.827,0v-15.09h15.09v15.09Zm15.828,0v-15.09h15.09v15.09Zm15.827,0v-15.09H1089v15.09Zm15.828,0v-15.09h15.09v15.09Zm15.827,0v-15.09h15.09v15.09Zm15.828,0v-15.09h15.09v15.09Zm15.827,0v-15.09h15.09v15.09Zm15.828,0v-15.09h15.09v15.09Zm15.827,0v-15.09h15.09v15.09Zm15.828,0v-15.09h15.09v15.09Zm15.827,0v-15.09h15.09v15.09Zm15.827,0v-15.09h15.091v15.09Zm15.828,0v-15.09h15.09v15.09Zm15.828-15.09H1263.1v15.09H1248.01Zm31.654,15.09v-15.09h15.09v15.09Zm15.828,0v-15.09h15.089v15.09Zm15.827,0v-15.09h15.09v15.09Zm15.828,0v-15.09h15.089v15.09Zm15.827,0v-15.09h15.09v15.09Zm15.828,0v-15.09h15.089v15.09Zm15.827,0v-15.09h15.09v15.09Zm15.828,0v-15.09h15.089v15.09Zm15.827,0v-15.09h15.09v15.09Zm15.827,0v-15.09h15.09v15.09Zm15.828,0v-15.09h15.09v15.09Zm15.827,0v-15.09h15.09v15.09Zm15.828,0v-15.09h15.09v15.09Zm15.827,0v-15.09h15.09v15.09Zm15.828,0v-15.09h15.09v15.09Zm15.827,0v-15.09h15.09v15.09Zm15.828,0v-15.09h15.09v15.09Zm15.827,0v-15.09h15.09v15.09Zm15.828,0v-15.09h15.09v15.09Zm15.827,0v-15.09h15.09v15.09Zm15.828,0v-15.09h15.09v15.09Zm30.917,0h-15.09v-15.09h15.09Zm0-15.828h-15.09v-15.09h15.09Zm0-15.827h-15.09V-555.8h15.09Zm0-15.828h-15.09v-15.09h15.09Zm0-15.827h-15.09v-15.09h15.09Zm0-15.828h-15.09v-15.09h15.09Zm0-15.827h-15.09v-15.09h15.09Zm0-15.828h-15.09v-15.09h15.09Zm0-15.827h-15.09v-15.09h15.09Zm0-15.828h-15.09v-15.09h15.09Zm0-15.827h-15.09v-15.09h15.09Zm0-15.828h-15.09v-15.09h15.09Zm0-15.827h-15.09v-15.09h15.09Zm0-15.828h-15.09V-729.9h15.09Zm0-15.827h-15.09v-15.09h15.09Zm0-15.828h-15.09v-15.09h15.09Zm0-15.827h-15.09v-15.09h15.09Zm0-15.828h-15.09v-15.09h15.09Zm0-15.827h-15.09v-15.09h15.09Zm0-15.828h-15.09v-15.09h15.09Zm0-15.827h-15.09v-15.09h15.09Zm0-15.827h-15.09v-15.09h15.09Zm0-15.828h-15.09v-15.09h15.09Zm0-30.54v14.707h-15.09v-15.09h15.09Zm0-1.12h-15.09v-15.09h15.09Zm0-15.827h-15.09v-15.091h15.09Zm0-15.828h-15.09v-15.09h15.09Zm0-15.828h-15.09V-951.49h15.09Zm0-15.827h-15.09v-15.09h15.09Zm0-15.827h-15.09v-15.09h15.09Zm0-15.828h-15.09v-15.09h15.09Zm0-15.827h-15.09v-15.09h15.09Zm0-15.828h-15.09v-15.09h15.09Zm0-15.827h-15.09v-15.09h15.09Zm0-15.828h-15.09v-15.09h15.09Zm0-15.827h-15.09v-15.09h15.09Zm0-15.828h-15.09v-15.09h15.09Zm0-15.827h-15.09v-15.09h15.09Zm0-15.828h-15.09v-15.09h15.09Zm0-15.827h-15.09v-15.09h15.09Zm0-15.828h-15.09v-15.09h15.09Zm0-15.827h-15.09v-15.09h15.09Zm0-15.828h-15.09v-15.09h15.09Zm0-15.827h-15.09v-15.09h15.09Zm0-15.828h-15.09v-15.09h15.09Zm0-15.827h-15.09v-15.09h15.09Z" transform="translate(-883.991 1251.963)" fill="#c9c7c5" opacity="0.735"/>
    </g>
    <rect id="Rectangle_100" data-name="Rectangle 100" width="726" height="827" transform="translate(-168.848)" fill="#f6f8f9" opacity="0"/>
    <g id="Group_73" data-name="Group 73" transform="translate(2.152 131.645)">
      <g id="Group_72" data-name="Group 72" transform="translate(134.368)">
        <path id="Path_386" data-name="Path 386" d="M439.087-968.679l-30.276-17.48-30.1,17.38-4.534,2.62a88.973,88.973,0,0,0,17.783,13.551l16.976,9.8,16.977-9.8a88.937,88.937,0,0,0,17.708-13.451Z" transform="translate(-347.704 1091.597)" fill="#11bc85"/>
        <path id="Path_387" data-name="Path 387" d="M451.1-1002.159l-47.38-27.354-47.354,27.329-4.407,2.544a88.01,88.01,0,0,0,12.317,18.363l4.508-2.595,34.81-20.1,35.011,20.227,4.484,2.569a88.963,88.963,0,0,0,12.417-18.438Z" transform="translate(-342.487 1101.778)" fill="#ffb32d"/>
        <path id="Path_388" data-name="Path 388" d="M456.769-1040.7l-55.716-32.166L345.361-1040.7l-4.76,2.745a87.275,87.275,0,0,0,5.944,22.115l4.433-2.569,50.074-28.916,50.125,28.941,4.433,2.544a88.258,88.258,0,0,0,5.919-22.115Z" transform="translate(-339.82 1111.958)" fill="#f2405f"/>
        <path id="Path_389" data-name="Path 389" d="M400.813-1123.955l-61.233,35.339v26.977c0,1.486.025,2.972.126,4.433l4.937-2.871,56.169-32.417,56.2,32.442,4.937,2.847c.1-1.461.125-2.947.125-4.433v-26.977Z" transform="translate(-339.58 1123.955)" fill="#5772ff"/>
      </g>
      <text id="GoHygiene" transform="translate(0 250.489)" font-size="75" font-family="Avenir-Medium, Avenir" font-weight="500"><tspan x="0" y="0">GoHygiene</tspan></text>
    </g>
    <g id="Group_78" data-name="Group 78" transform="translate(1001.389 460.686)">
      <g id="Group_77" data-name="Group 77">
        <g id="Group_74" data-name="Group 74" transform="translate(47.804 190.398)">
          <path id="Path_390" data-name="Path 390" d="M1642.588-413.539l-54.673-31.567-54.354,31.384-8.187,4.73a160.614,160.614,0,0,0,32.112,24.47l30.657,17.694,30.656-17.694a160.618,160.618,0,0,0,31.976-24.288Z" transform="translate(-1525.374 445.106)" fill="#11bc85"/>
        </g>
        <g id="Group_75" data-name="Group 75" transform="translate(17.102 130.495)">
          <path id="Path_391" data-name="Path 391" d="M1664.278-474l-85.557-49.4-85.511,49.351-7.96,4.594a158.975,158.975,0,0,0,22.242,33.158l8.141-4.684,62.859-36.3,63.224,36.524,8.1,4.639a160.721,160.721,0,0,0,22.423-33.3Z" transform="translate(-1485.25 523.393)" fill="#ffb32d"/>
        </g>
        <path id="Path_392" data-name="Path 392" d="M1674.517-543.6l-100.612-58.084L1473.339-543.6l-8.6,4.958a157.579,157.579,0,0,0,10.734,39.935l8.005-4.639,90.424-52.216,90.514,52.262,8.005,4.594a159.4,159.4,0,0,0,10.689-39.935Z" transform="translate(-1463.332 672.271)" fill="#f2405f"/>
        <g id="Group_76" data-name="Group 76">
          <path id="Path_393" data-name="Path 393" d="M1573.472-693.935,1462.9-630.121v48.714c0,2.683.046,5.367.227,8.005l8.915-5.185,101.431-58.539,101.476,58.584,8.915,5.14c.181-2.638.227-5.322.227-8.005v-48.714Z" transform="translate(-1462.899 693.935)" fill="#5772ff"/>
        </g>
      </g>
    </g>
    <g id="Group_83" data-name="Group 83" transform="translate(727.104 460.686)">
      <g id="Group_82" data-name="Group 82">
        <g id="Group_79" data-name="Group 79" transform="translate(47.804 190.398)">
          <path id="Path_394" data-name="Path 394" d="M1229.019-413.539l-54.673-31.567-54.354,31.384-8.187,4.73a160.614,160.614,0,0,0,32.112,24.47l30.656,17.694,30.657-17.694a160.61,160.61,0,0,0,31.976-24.288Z" transform="translate(-1111.805 445.106)" fill="#828e8e"/>
        </g>
        <g id="Group_80" data-name="Group 80" transform="translate(17.103 130.495)">
          <path id="Path_395" data-name="Path 395" d="M1250.708-474l-85.557-49.4-85.511,49.351-7.959,4.594a158.943,158.943,0,0,0,22.241,33.158l8.142-4.684,62.859-36.3,63.224,36.524,8.1,4.639a160.692,160.692,0,0,0,22.424-33.3Z" transform="translate(-1071.681 523.393)" fill="#828e8e"/>
        </g>
        <path id="Path_396" data-name="Path 396" d="M1260.948-543.6l-100.612-58.084L1059.769-543.6l-8.6,4.958a157.549,157.549,0,0,0,10.734,39.935l8.005-4.639,90.423-52.216L1250.85-503.3l8,4.594a159.368,159.368,0,0,0,10.69-39.935Z" transform="translate(-1049.763 672.271)" fill="#828e8e"/>
        <g id="Group_81" data-name="Group 81">
          <path id="Path_397" data-name="Path 397" d="M1159.9-693.935,1049.33-630.121v48.714c0,2.683.045,5.367.227,8.005l8.915-5.185,101.43-58.539,101.476,58.584,8.915,5.14c.182-2.638.227-5.322.227-8.005v-48.714Z" transform="translate(-1049.33 693.935)" fill="#828e8e"/>
        </g>
      </g>
    </g>
    <g id="Group_84" data-name="Group 84" transform="translate(1001.389 96.462)">
      <path id="Path_398" data-name="Path 398" d="M1642.588-889.539l-54.673-31.567-54.354,31.384-8.187,4.73a160.619,160.619,0,0,0,32.112,24.47l30.657,17.694,30.656-17.694a160.62,160.62,0,0,0,31.976-24.288Z" transform="translate(-1477.57 1111.504)" fill="none" stroke="#828e8e" stroke-miterlimit="10" stroke-width="1.893"/>
      <path id="Path_399" data-name="Path 399" d="M1664.278-950l-85.557-49.4-85.511,49.351-7.96,4.594a158.972,158.972,0,0,0,22.242,33.158l8.141-4.684,62.859-36.3,63.224,36.524,8.1,4.639a160.723,160.723,0,0,0,22.423-33.3Z" transform="translate(-1468.148 1129.888)" fill="none" stroke="#828e8e" stroke-miterlimit="10" stroke-width="1.893"/>
      <path id="Path_400" data-name="Path 400" d="M1674.517-1019.6l-100.612-58.084L1473.339-1019.6l-8.6,4.958a157.58,157.58,0,0,0,10.734,39.935l8.005-4.639,90.424-52.216,90.514,52.262,8.005,4.594a159.4,159.4,0,0,0,10.689-39.935Z" transform="translate(-1463.332 1148.271)" fill="none" stroke="#828e8e" stroke-miterlimit="10" stroke-width="1.893"/>
      <path id="Path_401" data-name="Path 401" d="M1573.472-1169.935,1462.9-1106.121v48.714c0,2.683.046,5.367.227,8.005l8.915-5.185,101.431-58.539,101.476,58.584,8.915,5.14c.181-2.638.227-5.322.227-8.005v-48.714Z" transform="translate(-1462.899 1169.935)" fill="none" stroke="#828e8e" stroke-miterlimit="10" stroke-width="1.893"/>
    </g>
    <g id="Group_86" data-name="Group 86" transform="translate(726.579 96.438)">
      <g id="Path_402" data-name="Path 402" transform="translate(-1048.666 1169.966)" fill="none" stroke-miterlimit="10">
        <path d="M1159.43-1169.966l-110.573,63.815v48.714c0,2.684.045,5.368.227,8.006l1.27,13.049-.087.05A157.569,157.569,0,0,0,1061-996.4l5.006,10.843-.049.028a159,159,0,0,0,22.242,33.159l7.923,9.056,1.49-.692-.953.55a160.612,160.612,0,0,0,32.113,24.471l30.656,17.693,30.657-17.693a160.642,160.642,0,0,0,31.976-24.289l-.8-.461.905.42,8.353-8.875a160.684,160.684,0,0,0,22.357-33.167l.051.026,5.019-11.07a159.387,159.387,0,0,0,10.69-39.935l-.531-.305.579.293,1.135-13.087c.182-2.638.227-5.322.227-8.006v-48.714Z" stroke="none"/>
        <path d="M 1159.430053710938 -1167.78076171875 L 1050.749877929688 -1105.05810546875 L 1050.749877929688 -1057.4375 C 1050.749877929688 -1054.236083984375 1050.81787109375 -1051.813720703125 1050.970581054688 -1049.588989257812 L 1052.237670898438 -1036.5654296875 L 1052.3564453125 -1035.344482421875 L 1052.31396484375 -1035.3203125 C 1054.14599609375 -1022.229125976562 1057.649780273438 -1009.396362304688 1062.73486328125 -997.157470703125 L 1067.72607421875 -986.3472900390625 L 1068.359130859375 -984.9759521484375 C 1074.088256835938 -973.8060302734375 1081.238891601562 -963.2603759765625 1089.62939453125 -953.609130859375 L 1089.62939453125 -953.609130859375 L 1096.613647460938 -945.6258544921875 L 1096.816284179688 -945.719970703125 L 1097.232788085938 -944.9180908203125 L 1097.548095703125 -944.5577392578125 L 1097.460083007812 -944.480712890625 L 1097.53369140625 -944.3388671875 L 1097.989379882812 -944.8011474609375 C 1107.41552734375 -935.510009765625 1118.092041015625 -927.3741455078125 1129.722045898438 -920.619873046875 L 1159.429809570312 -903.47412109375 L 1189.137939453125 -920.619873046875 C 1200.685302734375 -927.3077392578125 1211.316772460938 -935.38330078125 1220.737182617188 -944.6221923828125 L 1221.322265625 -944.0257568359375 L 1221.351318359375 -944.081787109375 L 1220.791381835938 -944.6087646484375 L 1229.120239257812 -953.4581298828125 C 1237.762817382812 -963.3455810546875 1245.18798828125 -974.3636474609375 1251.19091796875 -986.208251953125 L 1251.768920898438 -987.3485107421875 L 1256.211791992188 -997.1485595703125 C 1261.439331054688 -1009.837890625 1264.989013671875 -1023.104125976562 1266.76220703125 -1036.579467773438 L 1266.806274414062 -1036.573608398438 L 1267.933715820312 -1049.578369140625 C 1268.087036132812 -1051.80419921875 1268.155395507812 -1054.229125976562 1268.155395507812 -1057.4375 L 1268.155395507812 -1105.057861328125 L 1159.430053710938 -1167.78076171875 M 1159.429809570312 -1169.965942382812 L 1270.048217773438 -1106.151123046875 L 1270.048217773438 -1057.4375 C 1270.048217773438 -1054.75341796875 1270.003173828125 -1052.06982421875 1269.820922851562 -1049.431640625 L 1268.686279296875 -1036.3447265625 L 1268.107666015625 -1036.6376953125 L 1268.638793945312 -1036.33251953125 C 1266.819213867188 -1022.5048828125 1263.180053710938 -1009.086791992188 1257.94921875 -996.39697265625 L 1252.930419921875 -985.3265380859375 L 1252.879272460938 -985.3525390625 C 1246.841186523438 -973.438720703125 1239.360107421875 -962.29248046875 1230.522216796875 -952.18603515625 L 1222.169677734375 -943.3115234375 L 1221.264404296875 -943.7314453125 L 1222.0625 -943.2708740234375 C 1212.60107421875 -933.99169921875 1201.8671875 -925.804931640625 1190.086547851562 -918.98193359375 L 1159.429809570312 -901.2886962890625 L 1128.773559570312 -918.98193359375 C 1116.947021484375 -925.85009765625 1106.167236328125 -934.0826416015625 1096.66064453125 -943.453125 L 1097.61328125 -944.003173828125 L 1096.12353515625 -943.3115234375 L 1088.200927734375 -952.3673095703125 C 1079.421997070312 -962.46533203125 1071.917236328125 -973.609375 1065.958740234375 -985.5263671875 L 1066.007568359375 -985.5538330078125 L 1061.001220703125 -996.39697265625 C 1055.725219726562 -1009.086791992188 1052.086059570312 -1022.5048828125 1050.266479492188 -1036.33251953125 L 1050.353759765625 -1036.382202148438 L 1049.084228515625 -1049.431640625 C 1048.902221679688 -1052.06982421875 1048.857055664062 -1054.75341796875 1048.857055664062 -1057.4375 L 1048.857055664062 -1106.151123046875 L 1159.429809570312 -1169.965942382812 Z" stroke="none" fill="#828e8e"/>
      </g>
      <g id="Group_85" data-name="Group 85" transform="translate(0 56.192)">
        <line id="Line_19" data-name="Line 19" y1="63.725" x2="110.071" transform="translate(0.724)" fill="none" stroke="#828e8e" stroke-miterlimit="10" stroke-width="1.893"/>
        <line id="Line_20" data-name="Line 20" x1="109.152" y1="63.15" transform="translate(111.519)" fill="none" stroke="#828e8e" stroke-miterlimit="10" stroke-width="1.893"/>
        <line id="Line_21" data-name="Line 21" y1="57.208" x2="98.484" transform="translate(12.311 59.38)" fill="none" stroke="#828e8e" stroke-miterlimit="10" stroke-width="1.893"/>
        <line id="Line_22" data-name="Line 22" x1="97.76" y1="57.208" transform="translate(111.519 59.38)" fill="none" stroke="#828e8e" stroke-miterlimit="10" stroke-width="1.893"/>
        <line id="Line_23" data-name="Line 23" y1="41.277" x2="70.967" transform="translate(39.828 119.485)" fill="none" stroke="#828e8e" stroke-miterlimit="10" stroke-width="1.893"/>
        <line id="Line_24" data-name="Line 24" x1="70.243" y1="41.277" transform="translate(111.519 119.485)" fill="none" stroke="#828e8e" stroke-miterlimit="10" stroke-width="1.893"/>
        <path id="Path_403" data-name="Path 403" d="M1338.2-1087.066" transform="translate(-1116.61 1094.307)" fill="none" stroke="#828e8e" stroke-miterlimit="10" stroke-width="1.893"/>
        <path id="Path_404" data-name="Path 404" d="M1048.607-1088.012" transform="translate(-1048.607 1094.53)" fill="none" stroke="#828e8e" stroke-miterlimit="10" stroke-width="1.893"/>
      </g>
    </g>
  </g>
</svg>
